<svg width="18" height="25" fill="none" xmlns="http://www.w3.org/2000/svg"><path d="M9 25c.572 0 1.083-.283 1.37-.757l.008-.015L16.87 12.88c1.55-2.709 1.506-5.924-.119-8.6-1.589-2.618-4.41-4.218-7.55-4.279a10.26 10.26 0 0 0-.402 0c-3.139.061-5.961 1.66-7.55 4.28-1.624 2.675-1.669 5.89-.119 8.599l6.492 11.347.01.015c.285.474.797.757 1.368.757zM9 1.563l.168.001c2.562.05 4.868 1.359 6.168 3.5 1.335 2.2 1.372 4.842.098 7.068L9 23.377 2.566 12.132c-1.273-2.226-1.236-4.868.099-7.067 1.3-2.142 3.605-3.451 6.167-3.5.056-.002.112-.002.168-.002z" fill="#37A58C"/><path d="M9 11.328c2.03 0 3.682-1.577 3.682-3.515 0-1.939-1.652-3.516-3.682-3.516-2.03 0-3.682 1.577-3.682 3.516 0 1.938 1.652 3.515 3.682 3.515zM9 5.86c1.128 0 2.045.877 2.045 1.954 0 1.076-.917 1.953-2.045 1.953S6.955 8.89 6.955 7.813c0-1.076.917-1.953 2.045-1.953z" fill="#37A58C"/></svg>