<svg width="200" height="53" fill="none" xmlns="http://www.w3.org/2000/svg"><path d="M61.464 15.701h4.965v16.277h8.256v4.29H61.464V15.7zm13.457 10.283c0-1.586.274-3.036.823-4.348a10.4 10.4 0 012.35-3.408 10.614 10.614 0 013.526-2.203c1.351-.53 2.81-.794 4.377-.794 1.587 0 3.055.265 4.407.794 1.351.509 2.517 1.243 3.496 2.203.999.96 1.773 2.096 2.321 3.408.568 1.312.852 2.762.852 4.348 0 1.587-.274 3.046-.822 4.378a9.925 9.925 0 01-2.292 3.467 10.752 10.752 0 01-3.526 2.291c-1.332.529-2.81.793-4.436.793-1.606 0-3.085-.264-4.436-.793a10.752 10.752 0 01-3.526-2.291 10.276 10.276 0 01-2.32-3.467c-.53-1.332-.794-2.791-.794-4.378zm5.259 0c0 1.215.235 2.292.705 3.232a5.495 5.495 0 002.057 2.174c.881.529 1.9.793 3.055.793 1.175 0 2.194-.264 3.055-.793a5.354 5.354 0 001.998-2.174c.49-.94.735-2.017.735-3.232 0-1.214-.235-2.282-.705-3.202a5.311 5.311 0 00-1.998-2.204c-.862-.528-1.89-.793-3.085-.793-1.156 0-2.174.265-3.055.793a5.447 5.447 0 00-2.057 2.204c-.47.92-.705 1.988-.705 3.202zm30.24 2.85v-3.82h10.4c.098 1.626-.068 3.164-.499 4.613-.431 1.43-1.097 2.694-1.998 3.79-.901 1.097-2.027 1.959-3.379 2.586-1.332.607-2.879.91-4.642.91-2.174 0-4.113-.46-5.817-1.38a10.401 10.401 0 01-3.995-3.82c-.96-1.645-1.44-3.555-1.44-5.729s.5-4.064 1.498-5.67a10.073 10.073 0 014.084-3.76c1.724-.882 3.672-1.323 5.847-1.323 2.174 0 4.025.46 5.552 1.381a11.398 11.398 0 013.731 3.496l-4.436 2.292a6.405 6.405 0 00-1.88-2.027c-.764-.549-1.753-.823-2.967-.823a6.604 6.604 0 00-3.144.764c-.94.51-1.694 1.244-2.262 2.203-.549.96-.823 2.116-.823 3.467 0 1.352.265 2.527.793 3.526a5.985 5.985 0 002.233 2.291c.94.53 2.008.794 3.203.794 1.508 0 2.702-.353 3.584-1.058a5.557 5.557 0 001.821-2.703h-5.464zm12.558-2.85c0-1.586.274-3.036.823-4.348a10.398 10.398 0 012.35-3.408 10.62 10.62 0 013.526-2.203c1.351-.53 2.81-.794 4.377-.794 1.587 0 3.056.265 4.407.794 1.352.509 2.517 1.243 3.496 2.203.999.96 1.773 2.096 2.321 3.408.568 1.312.852 2.762.852 4.348 0 1.587-.274 3.046-.822 4.378a9.926 9.926 0 01-2.292 3.467 10.75 10.75 0 01-3.526 2.291c-1.331.529-2.81.793-4.436.793-1.606 0-3.085-.264-4.436-.793a10.75 10.75 0 01-3.526-2.291 10.283 10.283 0 01-2.321-3.467c-.528-1.332-.793-2.791-.793-4.378zm5.259 0c0 1.215.235 2.292.705 3.232a5.493 5.493 0 002.057 2.174c.881.529 1.9.793 3.055.793 1.175 0 2.194-.264 3.056-.793a5.356 5.356 0 001.997-2.174c.49-.94.735-2.017.735-3.232 0-1.214-.235-2.282-.705-3.202a5.31 5.31 0 00-1.998-2.204c-.862-.528-1.89-.793-3.085-.793-1.155 0-2.174.265-3.055.793a5.446 5.446 0 00-2.057 2.204c-.47.92-.705 1.988-.705 3.202zm17.099-5.817v-4.466h16.276v4.466h-5.64v16.1h-4.995v-16.1h-5.641zm30.961-4.466h5.729l-7.198 12.193v8.373h-5.083v-8.344l-7.198-12.221h5.729l3.996 7.726 4.025-7.727zm6.682 4.466v-4.466h16.276v4.466h-5.641v16.1h-4.994v-16.1h-5.641zM13.254 39.702a18.362 18.362 0 1125.968 0L32.73 33.21a9.18 9.18 0 10-12.984 0l-6.492 6.492z" fill="#111"/></svg>