<svg width="30" height="25" fill="none" xmlns="http://www.w3.org/2000/svg"><path d="M4.393 25a14.54 14.54 0 01-4.105-7.498 14.323 14.323 0 01.854-8.462 14.726 14.726 0 015.524-6.572A15.26 15.26 0 0115 0c2.967 0 5.867.859 8.334 2.468a14.726 14.726 0 015.524 6.572 14.323 14.323 0 01.854 8.462A14.54 14.54 0 0125.607 25l-5.304-5.178a7.27 7.27 0 002.053-3.749 7.16 7.16 0 00-.427-4.23 7.364 7.364 0 00-2.762-3.287A7.63 7.63 0 0015 7.322a7.63 7.63 0 00-4.167 1.234 7.363 7.363 0 00-2.762 3.287 7.161 7.161 0 00-.427 4.23 7.27 7.27 0 002.053 3.75L4.393 25z" fill="#111"/></svg>