<svg width="25" height="25" viewBox="0 0 25 25" fill="none" xmlns="http://www.w3.org/2000/svg">
<path d="M17.9678 25C17.1608 25 16.3607 24.8573 15.5782 24.5731C12.1312 23.3209 8.93163 21.2814 6.32529 18.6751C3.71896 16.0688 1.67949 12.8692 0.427342 9.42217C0.0249655 8.31441 -0.0937797 7.1709 0.074524 6.02329C0.232184 4.94833 0.648573 3.90477 1.27872 3.00539C1.91166 2.10206 2.75547 1.35073 3.71891 0.832632C4.74631 0.280164 5.8677 0 7.05202 0C7.42037 0 7.73871 0.257363 7.81591 0.617504L9.04213 6.33988C9.09764 6.599 9.01801 6.86862 8.83066 7.05601L6.73539 9.15124C8.71197 13.0811 11.9193 16.2883 15.8491 18.2649L17.9443 16.1696C18.1317 15.9823 18.4013 15.9028 18.6604 15.9582L24.3828 17.1844C24.743 17.2616 25.0003 17.5799 25.0003 17.9483C25.0003 19.1326 24.7202 20.2541 24.1676 21.2815C23.6495 22.2449 22.8982 23.0887 21.9949 23.7216C21.0955 24.3518 20.052 24.7682 18.977 24.9258C18.6401 24.9753 18.3033 25 17.9678 25ZM6.42783 1.59661C4.86564 1.76907 3.47907 2.58788 2.55831 3.90204C1.5229 5.37976 1.28146 7.19731 1.89589 8.88875C4.30321 15.5157 9.48469 20.6972 16.1117 23.1045C17.8031 23.719 19.6207 23.4776 21.0984 22.4421C22.4125 21.5213 23.2313 20.1348 23.4038 18.5726L18.7487 17.5751L16.5605 19.7633C16.3276 19.9961 15.9738 20.058 15.6759 19.9179C11.0281 17.7344 7.26598 13.9723 5.08247 9.32452C4.94249 9.02653 5.0043 8.67274 5.23716 8.43994L7.42535 6.25175L6.42783 1.59661Z" fill="#37A58C"/>
<path d="M24.2187 13.2807C23.7873 13.2807 23.4375 12.9309 23.4375 12.4995C23.4375 6.46878 18.5312 1.56244 12.5005 1.56244C12.069 1.56244 11.7192 1.21265 11.7192 0.781218C11.7192 0.34979 12.069 0 12.5005 0C15.8392 0 18.9781 1.30014 21.339 3.66098C23.6998 6.02182 24.9999 9.16071 24.9999 12.4995C24.9999 12.9309 24.6502 13.2807 24.2187 13.2807Z" fill="#37A58C"/>
<path d="M21.0939 13.2808C20.6624 13.2808 20.3126 12.9311 20.3126 12.4996C20.3126 8.19199 16.8081 4.68744 12.5005 4.68744C12.069 4.68744 11.7192 4.33765 11.7192 3.90622C11.7192 3.47479 12.069 3.125 12.5005 3.125C17.6696 3.125 21.8751 7.33045 21.8751 12.4996C21.8751 12.9311 21.5253 13.2808 21.0939 13.2808Z" fill="#37A58C"/>
<path d="M17.969 13.281C17.5376 13.281 17.1878 12.9312 17.1878 12.4998C17.1878 9.91514 15.0851 7.81244 12.5005 7.81244C12.069 7.81244 11.7192 7.46265 11.7192 7.03122C11.7192 6.59979 12.069 6.25 12.5005 6.25C15.9466 6.25 18.7502 9.0536 18.7502 12.4998C18.7502 12.9312 18.4005 13.281 17.969 13.281Z" fill="#37A58C"/>
</svg>
