<svg width="18" height="25" viewBox="0 0 18 25" fill="none" xmlns="http://www.w3.org/2000/svg">
<path d="M9.00013 25C9.57163 25 10.0834 24.717 10.3691 24.2429C10.3721 24.238 10.375 24.2329 10.3779 24.2279L16.8703 12.8809C18.42 10.1724 18.3756 6.9575 16.7514 4.28113C15.1624 1.66277 12.3401 0.0631104 9.20166 0.00197754C9.06758 -0.00065918 8.93279 -0.00065918 8.79881 0.00197754C5.66031 0.0631104 2.83799 1.66277 1.24898 4.28113C-0.37521 6.9575 -0.419647 10.1723 1.13009 12.8809L7.62247 24.2279C7.62538 24.2329 7.62829 24.238 7.63131 24.2429C7.91691 24.717 8.42863 25 9.00013 25ZM9.00018 1.56252C9.05638 1.56252 9.11243 1.56306 9.16837 1.56414C11.7302 1.61404 14.0358 2.92258 15.3356 5.06453C16.6706 7.26448 16.7076 9.90642 15.4343 12.1317L9.00018 23.3768L2.5661 12.1318C1.29286 9.90642 1.32973 7.26448 2.66485 5.06453C3.96468 2.92263 6.27022 1.61404 8.8321 1.56414C8.88789 1.56306 8.94398 1.56252 9.00018 1.56252Z" fill="#37A58C"/>
<path d="M8.99999 11.3281C11.0302 11.3281 12.6818 9.75103 12.6818 7.8125C12.6818 5.87397 11.0302 4.29688 8.99999 4.29688C6.96983 4.29688 5.31818 5.87397 5.31818 7.8125C5.31818 9.75103 6.96978 11.3281 8.99999 11.3281ZM8.99999 5.85938C10.1279 5.85938 11.0454 6.73555 11.0454 7.8125C11.0454 8.88945 10.1279 9.76562 8.99999 9.76562C7.87213 9.76562 6.95454 8.88945 6.95454 7.8125C6.95454 6.73555 7.87213 5.85938 8.99999 5.85938Z" fill="#37A58C"/>
</svg>
