<svg width="64" height="70" fill="none" xmlns="http://www.w3.org/2000/svg"><path d="M57.744 0H10.606a5.93 5.93 0 0 0-4.164 1.71 5.81 5.81 0 0 0-1.728 4.123v52.5H1.178c-.312 0-.612.123-.833.342A1.16 1.16 0 0 0 0 59.5v4.667a5.81 5.81 0 0 0 1.728 4.123A5.929 5.929 0 0 0 5.892 70h42.424a5.929 5.929 0 0 0 4.165-1.71 5.81 5.81 0 0 0 1.728-4.123v-52.5h8.249c.313 0 .612-.123.833-.342.221-.219.345-.516.345-.825V5.833A5.81 5.81 0 0 0 61.91 1.71 5.93 5.93 0 0 0 57.744 0zM5.892 67.667a3.558 3.558 0 0 1-2.498-1.027 3.486 3.486 0 0 1-1.037-2.473v-3.5h40.067v3.5a5.766 5.766 0 0 0 1.181 3.5H5.892zm45.96-3.5a3.48 3.48 0 0 1-1.036 2.474 3.554 3.554 0 0 1-2.5 1.026 3.554 3.554 0 0 1-2.5-1.026 3.482 3.482 0 0 1-1.035-2.474V59.5c0-.31-.124-.606-.345-.825a1.185 1.185 0 0 0-.833-.342H7.07v-52.5A3.486 3.486 0 0 1 8.107 3.36a3.558 3.558 0 0 1 2.5-1.027h42.426a5.764 5.764 0 0 0-1.181 3.5v58.334zM61.28 9.333h-7.071v-3.5c0-.928.372-1.818 1.035-2.475a3.554 3.554 0 0 1 2.5-1.025c.938 0 1.837.37 2.5 1.025a3.482 3.482 0 0 1 1.035 2.475v3.5z" fill="#37A58C"/><path d="M29.072 25.667a5.935 5.935 0 0 0 3.273-.983 5.847 5.847 0 0 0 2.17-2.618 5.78 5.78 0 0 0 .336-3.37 5.817 5.817 0 0 0-1.613-2.988 5.911 5.911 0 0 0-3.017-1.596 5.948 5.948 0 0 0-3.404.332 5.88 5.88 0 0 0-2.645 2.149 5.792 5.792 0 0 0-.993 3.24 5.81 5.81 0 0 0 1.728 4.123 5.93 5.93 0 0 0 4.165 1.71zm0-9.334c.699 0 1.382.206 1.964.59a3.509 3.509 0 0 1 1.302 1.57 3.468 3.468 0 0 1-.767 3.815 3.569 3.569 0 0 1-3.853.759 3.527 3.527 0 0 1-1.586-1.29 3.475 3.475 0 0 1-.596-1.944 3.486 3.486 0 0 1 1.037-2.473 3.558 3.558 0 0 1 2.498-1.027z" fill="#DD0060"/><path d="M40.698 33.975a10.028 10.028 0 0 1-2.216-3.275 9.947 9.947 0 0 1-.772-3.867c0-.089-.01-.177-.031-.264.104-.105.2-.218.288-.337a2.92 2.92 0 0 0 .3-2.987.636.636 0 0 1 .27-.821l.007-.004a2.987 2.987 0 0 0 1.114-1.09 2.949 2.949 0 0 0 .001-2.993 2.985 2.985 0 0 0-1.114-1.09l-.009-.004a.644.644 0 0 1-.269-.824 2.944 2.944 0 0 0-.3-2.985 2.996 2.996 0 0 0-1.223-.974 3.03 3.03 0 0 0-1.553-.23.653.653 0 0 1-.452-.119.641.641 0 0 1-.254-.389l-.001-.008a2.961 2.961 0 0 0-.702-1.386 3.005 3.005 0 0 0-1.312-.848 3.03 3.03 0 0 0-2.955.635l-.002.002-.005.004a.653.653 0 0 1-.874-.001 3.03 3.03 0 0 0-2.954-.641 3.004 3.004 0 0 0-1.314.844 2.96 2.96 0 0 0-.705 1.385l-.003.014a.643.643 0 0 1-.255.39.655.655 0 0 1-.453.118 3.03 3.03 0 0 0-1.552.23c-.488.213-.91.55-1.222.976a2.953 2.953 0 0 0-.3 2.985.636.636 0 0 1-.27.822l-.007.004a2.986 2.986 0 0 0-1.114 1.089 2.95 2.95 0 0 0-.001 2.993c.267.454.652.83 1.114 1.09l.009.004a.644.644 0 0 1 .269.824 2.91 2.91 0 0 0 .3 2.984c.27.37.622.674 1.029.888a9.98 9.98 0 0 1-2.98 6.855l-2.56 2.534a1.162 1.162 0 0 0 .305 1.868 1.2 1.2 0 0 0 .722.108l5.945-.981.955 4.725c.047.233.165.446.338.61a1.182 1.182 0 0 0 1.325.214c.217-.102.397-.268.516-.474l3.214-5.57c.172-.297.33-.603.476-.914.146.311.304.617.476.915l3.215 5.569c.119.206.299.371.515.474a1.19 1.19 0 0 0 1.326-.213c.173-.165.29-.378.338-.611l.954-4.725 5.946.98a1.173 1.173 0 0 0 1.242-.617 1.157 1.157 0 0 0-.216-1.358l-2.559-2.533zM20.761 20.389a.642.642 0 0 1-.328-.556.633.633 0 0 1 .328-.556l.007-.004A2.996 2.996 0 0 0 22.14 17.6a2.962 2.962 0 0 0-.122-2.152.631.631 0 0 1 .065-.642.643.643 0 0 1 .598-.257A3.04 3.04 0 0 0 24.783 14a2.984 2.984 0 0 0 1.184-1.804l.003-.015a.635.635 0 0 1 .434-.481.652.652 0 0 1 .636.14 3.04 3.04 0 0 0 4.065-.001l.001-.001a.647.647 0 0 1 1.069.343l.001.008a2.988 2.988 0 0 0 1.184 1.809 3.043 3.043 0 0 0 2.106.55.65.65 0 0 1 .596.26.633.633 0 0 1 .063.642 2.962 2.962 0 0 0-.121 2.15c.23.707.72 1.304 1.37 1.674l.009.004a.642.642 0 0 1 .328.556.633.633 0 0 1-.328.556l-.008.004a3 3 0 0 0-1.371 1.674 2.962 2.962 0 0 0 .122 2.152.633.633 0 0 1-.33.851.65.65 0 0 1-.333.049 3.038 3.038 0 0 0-2.102.548 2.983 2.983 0 0 0-1.184 1.805l-.003.014a.637.637 0 0 1-.434.482.652.652 0 0 1-.636-.14 3.037 3.037 0 0 0-2.034-.778 3.03 3.03 0 0 0-2.032.78.647.647 0 0 1-1.069-.344l-.001-.008a2.987 2.987 0 0 0-1.184-1.809 3.042 3.042 0 0 0-2.106-.55.65.65 0 0 1-.596-.26.635.635 0 0 1-.063-.642 2.962 2.962 0 0 0 .121-2.15 2.996 2.996 0 0 0-1.37-1.673l-.009-.005zm6.178 15.463l-1.653 2.864-.561-2.778a1.166 1.166 0 0 0-.487-.732 1.188 1.188 0 0 0-.863-.19l-3.443.569a12.282 12.282 0 0 0 3.605-7.898.62.62 0 0 1 .121.258l.002.008c.098.48.315.927.63 1.303a3 3 0 0 0 1.177.855 3.029 3.029 0 0 0 2.816-.29v1.02a10.03 10.03 0 0 1-1.344 5.011zm8.608-.836a1.188 1.188 0 0 0-.863.19 1.166 1.166 0 0 0-.486.732l-.561 2.778-1.653-2.864a10.037 10.037 0 0 1-1.344-5.01v-.645a2.958 2.958 0 0 0 1.83-.01c.506-.16.96-.45 1.314-.841a2.92 2.92 0 0 0 .698-1.387l.003-.015a.641.641 0 0 1 .255-.39.653.653 0 0 1 .453-.117c.059.006.118.01.176.014a12.285 12.285 0 0 0 3.622 8.133l-3.444-.568zM29.02 50.167c.813 0 1.472-.653 1.472-1.459 0-.805-.66-1.458-1.473-1.458-.813 0-1.473.653-1.473 1.458 0 .806.66 1.459 1.473 1.459zm-5.01 0c.814 0 1.474-.653 1.474-1.459 0-.805-.66-1.458-1.473-1.458-.814 0-1.473.653-1.473 1.458 0 .806.66 1.459 1.473 1.459zm10.018 0c.813 0 1.473-.653 1.473-1.459 0-.805-.66-1.458-1.473-1.458-.814 0-1.473.653-1.473 1.458 0 .806.66 1.459 1.473 1.459z" fill="#DD0060"/></svg>