<svg width="112" height="100" fill="none" xmlns="http://www.w3.org/2000/svg"><g clip-path="url(#clip0_335_58)" stroke-width="2" stroke-miterlimit="10"><path d="M32.955 70.155H9.15c-4.277 0-7.747-3.487-7.747-7.786V29.117c0-4.299 3.47-7.786 7.747-7.786h72.302" stroke="#111"/><path d="M27.145 75.832l-21.223.162c-2.501 0-4.519-2.27-4.519-5.11v-8.028" stroke="#111"/><path d="M22.384 80.617l-16.462-.162a4.523 4.523 0 01-4.519-4.542V71.21m13.234-49.88c0 7.3-5.89 13.302-13.234 13.302m0 22.222c7.263 0 13.234 5.92 13.234 13.3M44.09 58.8c-4.115-2.92-5.97-7.704-5.97-13.057 0-8.84 7.1-15.977 15.896-15.977 5.326 0 9.764 2.27 12.669 6.326M85.5 25.547h17.35c4.277 0 7.747 3.488 7.747 7.786v33.171c0 4.299-3.47 7.786-7.747 7.786H37.004" stroke="#111"/><path d="M110.596 66.91v8.03c0 2.838-2.017 5.109-4.519 5.109H31.193" stroke="#111"/><path d="M110.596 75.264v4.704a4.522 4.522 0 01-4.518 4.541H26.675M97.362 74.21c0-7.3 5.891-13.302 13.234-13.302m0-22.141c-7.262 0-13.234-5.92-13.234-13.3M70.733 40.39c2.018 2.676 3.147 6 3.147 9.57 0 8.84-7.1 15.977-15.896 15.977-3.55 0-6.86-1.217-9.522-3.163" stroke="#111"/><path d="M110.596.324L85.5 25.466 37.005 74.29l-5.81 5.84-4.52 4.46-15.089 15.167" stroke="#525251"/></g><defs><clipPath id="clip0_335_58"><path fill="#fff" d="M0 0h112v100H0z"/></clipPath></defs></svg>