<svg width="111" height="100" fill="none" xmlns="http://www.w3.org/2000/svg"><g clip-path="url(#clip0_335_77)" stroke-width="2" stroke-miterlimit="10"><path d="M92.906 46.174C94.452 27.6 94.11 9.888 94.11 9.888S58.892.43 55.542.43c-2.405 0-38.566 9.458-38.566 9.458s-.43 17.885 1.116 36.544" stroke="#111"/><path d="M87.666 46.26c1.289-15.821 1.031-30.697 1.031-30.697s-30.32-8.168-33.155-8.168c-2.062 0-33.241 8.168-33.241 8.168s-.344 14.961 1.03 30.697m-3.692 12.897c1.46 9.803 3.693 18.659 6.957 23.904 5.154 8.169 28.86 16.423 28.86 16.423s23.707-8.34 28.861-16.423c3.264-5.159 5.497-14.015 6.958-23.732" stroke="#111"/><path d="M24.878 59.243c1.288 7.91 3.092 14.962 5.755 19.175 4.466 6.965 24.823 14.187 24.823 14.187S75.813 85.47 80.28 78.418c2.662-4.213 4.552-11.264 5.755-19.089" stroke="#111"/><path d="M15.344 54.686H1.773c-2.233 0 6.442 5.417 6.442 6.449 0 .688-8.59 6.363-6.356 6.363h19.24m74.556-12.812h13.572c2.233 0-6.442 5.417-6.442 6.449 0 .688 8.589 6.363 6.356 6.363h-19.24" stroke="#525251"/><path d="M94.195 59.157H16.89c-.773 0-1.46-.688-1.46-1.461v-9.889c0-.773.687-1.461 1.46-1.461h77.305c.773 0 1.46.688 1.46 1.461v9.889c-.086.86-.687 1.461-1.46 1.461z" stroke="#525251"/><path d="M39.223 50.731h32.554M45.58 54.858h19.84" stroke="#525251" stroke-linecap="round"/><path d="M41.026 30.439l10.05 10.06m18.897-18.917L51.076 40.5" stroke="#111" stroke-linecap="round"/></g><defs><clipPath id="clip0_335_77"><path fill="#fff" d="M0 0h111v100H0z"/></clipPath></defs></svg>