<svg width="106" height="100" fill="none" xmlns="http://www.w3.org/2000/svg"><g clip-path="url(#clip0_335_108)" stroke-width="2" stroke-miterlimit="10"><path d="M50.847 88.425c-1.808.245-3.615.326-5.422.326-24.317 0-44.033-19.559-44.033-43.681 0-24.123 19.716-43.682 44.033-43.682S89.458 20.947 89.458 45.07c0 5.46-.986 10.675-2.875 15.484" stroke="#111"/><path d="M54.544 81.09c-2.958.734-5.997 1.142-9.12 1.142-20.701 0-37.46-16.626-37.46-37.162 0-20.537 16.759-37.162 37.46-37.162 20.703 0 37.462 16.625 37.462 37.162 0 2.444-.246 4.89-.74 7.253" stroke="#111"/><path d="M45.425 50.53c3.04 0 5.504-2.445 5.504-5.46 0-3.016-2.464-5.46-5.504-5.46-3.04 0-5.504 2.444-5.504 5.46 0 3.015 2.464 5.46 5.504 5.46z" stroke="#111"/><path d="M41.4 41.402L26.53 26.57m47.812 18.5H50.847" stroke="#111" stroke-linecap="round"/><path d="M76.97 83.943V58.679m0 30.48v-1.141M71.63 52.16c-31.052 54.113-35.735 45.8 26.864 46.208 4.601 0 7.476-4.89 5.176-8.883L81.982 52.16c-2.3-3.912-8.051-3.912-10.351 0z" stroke="#525251" stroke-linecap="round"/><path d="M45.425 16.057v6.275m0 45.475v6.275M22.504 45.07H16.18m49.947-20.537l-4.519 4.4M29.159 61.124l-4.436 4.482m39.761-1.14l-3.286-3.342" stroke="#111" stroke-linecap="round"/></g><defs><clipPath id="clip0_335_108"><path fill="#fff" d="M0 0h105.882v100H0z"/></clipPath></defs></svg>