<svg width="80" height="102" fill="none" xmlns="http://www.w3.org/2000/svg"><path d="M62.86 59.824s13.756 28.368 15.274 31.309c1.139 2.277-11.1-2.467-12.523-1.803-1.044.475-5.219 13.093-6.262 10.816-1.423-2.846-15.465-31.594-15.465-31.594M16.75 59.824S2.991 88.192 1.473 91.133c-1.138 2.277 11.1-2.467 12.524-1.803 1.043.475 5.218 13.093 6.262 10.816 1.423-2.846 15.464-31.594 15.464-31.594" stroke="#525251" stroke-width="2" stroke-miterlimit="10"/><path d="M40.089 61.437c14.567 0 26.375-11.81 26.375-26.376 0-14.567-11.808-26.376-26.375-26.376S13.713 20.494 13.713 35.061c0 14.567 11.809 26.376 26.376 26.376z" stroke="#111" stroke-width="2" stroke-miterlimit="10" stroke-linecap="round"/><path d="M44.738 1.474H35.44a22.4 22.4 0 00-15.844 6.547l-6.547 6.546c-4.269 4.27-6.546 9.962-6.546 15.845v9.298a22.4 22.4 0 006.546 15.844l6.547 6.547c4.174 4.174 9.962 6.546 15.844 6.546h9.298a22.4 22.4 0 0015.845-6.546l6.546-6.547c4.175-4.175 6.547-9.962 6.547-15.844v-9.298a22.4 22.4 0 00-6.547-15.845l-6.546-6.546c-4.27-4.175-9.962-6.547-15.845-6.547zM24.055 34.397l11.1 11.1m20.873-20.873L35.155 45.497" stroke="#111" stroke-width="2" stroke-miterlimit="10" stroke-linecap="round"/></svg>