<svg width="104" height="99" fill="none" xmlns="http://www.w3.org/2000/svg"><path d="M59.501 33.514L72.749 21.23s-2.922-8.676 1.85-13.648c4.774-4.971 10.52-5.751 14.417-5.556.877.097 2.728.487-.487 3.509-3.214 3.022-5.357 5.362-5.357 5.362s-2.728 3.704.487 7.018c3.214 3.217 6.137.585 6.137.585L100.12 8.168c.585-.585 2.533-.585 1.656 3.704-.682 3.51-1.85 9.261-6.429 13.746-4.578 4.386-11.202 6.53-14.027 3.704-.097-.098-.292-.195-.292-.195L67.78 41.605M43.818 65.196L31.154 77.674s2.923 8.676-1.85 13.647c-4.774 4.972-10.424 5.85-14.32 5.654-.877-.097-2.727-.487.487-3.509 3.215-3.022 5.358-5.362 5.358-5.362s2.727-3.704-.487-7.018c-3.215-3.217-6.137-.585-6.137-.585L3.879 90.834c-.584.585-2.532.585-1.656-3.704.682-3.51 1.851-9.261 6.43-13.745 4.578-4.387 11.202-6.532 14.026-3.705.098.098.293.195.293.195L35.5 57" stroke="#111" stroke-width="2" stroke-miterlimit="10" stroke-linecap="round" stroke-linejoin="round"/><path d="M51.805 67.048c9.738 0 17.631-7.9 17.631-17.645 0-9.744-7.893-17.644-17.63-17.644-9.738 0-17.632 7.9-17.632 17.645 0 9.744 7.894 17.644 17.631 17.644z" stroke="#525251" stroke-width="2" stroke-miterlimit="10" stroke-linecap="round" stroke-linejoin="round"/><path d="M56.092 45.114c0-2.34-1.949-4.289-4.286-4.289-2.338 0-4.286 1.95-4.286 4.29 0 2.339 1.948 4.288 4.286 4.288m-4.188 4.29c0 2.34 1.948 4.29 4.286 4.29 2.338 0 4.286-1.95 4.286-4.29s-1.948-4.29-4.286-4.29m-.098-10.82v21.641" stroke="#525251" stroke-width="2" stroke-miterlimit="10" stroke-linecap="round" stroke-linejoin="round"/></svg>