<svg width="97" height="99" fill="none" xmlns="http://www.w3.org/2000/svg"><path d="M18.271 72.09a7.403 7.403 0 00-5.23 2.165 7.368 7.368 0 00-2.172 5.219c0 1.969.79 3.84 2.171 5.218a7.403 7.403 0 005.231 2.166c1.974 0 3.85-.787 5.23-2.166a7.369 7.369 0 002.172-5.218c0-1.97-.79-3.84-2.171-5.219a7.403 7.403 0 00-5.23-2.166zm-3.552 7.285l2.467 2.462m4.639-4.628l-4.639 4.628" stroke="#525251" stroke-width="2" stroke-miterlimit="10" stroke-linecap="round"/><path d="M75.513 67.068v19.889c0 5.612-4.44 10.043-10.066 10.043h-54.38C5.54 97 1 92.57 1 86.957V11.043C1 5.53 5.54 1 11.067 1h54.479c5.526 0 9.967 4.53 9.967 10.043v40.763" stroke="#111" stroke-width="2" stroke-miterlimit="10" stroke-linecap="round" stroke-linejoin="round"/><path d="M67.42 65.394L86.862 33.59c1.086-1.871 2.468-3.053 3.948-2.166l2.764 1.674c1.48.886.987 2.658-.099 4.529L74.032 69.43" stroke="#525251" stroke-width="2" stroke-miterlimit="10" stroke-linecap="round" stroke-linejoin="round"/><path d="M74.428 68.742l-3.652-2.265-2.96-1.772s-1.777 2.855-2.172 3.938c-.395 1.083-.79 3.348-1.184 4.43-.494 1.28-2.566 4.629-2.566 4.629s-1.086 1.575.79 2.756h.197c1.875 1.084 2.763-.59 2.763-.59s1.974-3.447 2.96-4.431c.79-.886 2.567-2.265 3.455-3.052.592-.69 2.369-3.644 2.369-3.644zM63.769 74.55l3.651 2.265M84 37l8.29 5.022s1.875.886.691 2.855c-1.184 1.97-6.02 9.846-6.02 9.846m3.652-23.397l1.185-1.969c.493-.788 1.579-1.083 2.368-.59.79.492 1.086 1.575.592 2.362l-1.184 1.97M56.17 19.806H20.343a2.86 2.86 0 01-2.863-2.855V13.7a2.86 2.86 0 012.863-2.855h35.825a2.86 2.86 0 012.862 2.856v3.249c0 1.674-1.283 2.855-2.862 2.855z" stroke="#525251" stroke-width="2" stroke-miterlimit="10" stroke-linecap="round" stroke-linejoin="round"/><path d="M21.726 26.994h33.062M10.771 34.97h20.726m4.243 0h30.003m0 5.808H45.116m-4.243 0H10.772m-.001 6.203h20.726m4.243 0h30.003m0 5.809H45.116m-4.243 0H10.772m-.001 6.598h8.883m3.356 0h12.73m0 6.202h-8.883m-3.255 0h-12.83" stroke="#111" stroke-width="2" stroke-miterlimit="10" stroke-linecap="round" stroke-linejoin="round"/><path d="M32.977 91.585s3.257-15.951 7.501-15.853c4.244.099-.395 13.686 4.145 10.93 4.54-2.757 3.455-7.484 7.205-7.188 3.257.197 5.132 3.84 7.303 4.234 1.086.197 1.876 0 3.553-2.56" stroke="#525251" stroke-width="2" stroke-miterlimit="10" stroke-linecap="round"/></svg>