<svg width="70" height="70" fill="none" xmlns="http://www.w3.org/2000/svg"><path d="M35 0A35.007 35.007 0 004.932 52.925a1.165 1.165 0 00-.07 1.389l1.32 1.982-5.617 3.37a1.166 1.166 0 00.371 2.145l4.843.968-.324 5.991a1.167 1.167 0 001.765 1.064l8.91-5.353a35.018 35.018 0 0037.737 0l8.91 5.353a1.168 1.168 0 001.766-1.064l-.324-5.99 4.843-.97a1.166 1.166 0 00.371-2.144l-5.618-3.37 1.321-1.982a1.165 1.165 0 00-.07-1.39A35.005 35.005 0 0035 0zM10.844 52.555a55.819 55.819 0 0148.309 0l3.296 1.582-3.366 5.05a58.149 58.149 0 00-48.17 0l-3.365-5.05 3.296-1.582zm24.154-7.83a58.53 58.53 0 00-19.349 3.32A23.148 23.148 0 0111.666 35c0-12.866 10.467-23.333 23.333-23.333 12.867 0 23.334 10.467 23.334 23.333a23.16 23.16 0 01-3.985 13.044 58.527 58.527 0 00-19.349-3.32zm8.075 12.168a23.358 23.358 0 01-16.15 0 55.068 55.068 0 0116.15 0zm-35.17 9.808l.26-4.804a1.166 1.166 0 00-.936-1.208l-2.874-.575L7.48 58.24l2.05 3.075a1.167 1.167 0 001.47.405 53.76 53.76 0 012.37-1.06l1.313 1.97-6.78 4.071zm9.49-4.18a1.181 1.181 0 00-.09-.168l-1.712-2.567a56.33 56.33 0 017.303-2.15 25.685 25.685 0 0024.209 0c2.48.55 4.92 1.269 7.303 2.15l-1.711 2.566c-.035.053-.066.11-.091.168a32.685 32.685 0 01-35.21 0zm48.25-2.407l-2.873.575a1.167 1.167 0 00-.936 1.207l.26 4.805-6.78-4.071 1.313-1.97c.798.336 1.588.689 2.37 1.06a1.166 1.166 0 001.473-.406l2.05-3.075 3.124 1.875zm-2.634-8.297l-2.846-1.366a56.893 56.893 0 00-3.575-1.567A25.477 25.477 0 0060.666 35C60.666 20.847 49.152 9.333 35 9.333 20.846 9.333 9.332 20.847 9.332 35a25.462 25.462 0 004.076 13.885c-1.21.482-2.4 1.004-3.573 1.567L6.99 51.817a32.667 32.667 0 1156.02 0z" fill="#37A58C"/><path d="M46.083 25.667h-6.416A1.168 1.168 0 0138.5 24.5V21a3.505 3.505 0 00-3.5-3.5h-2.333a1.167 1.167 0 00-1.167 1.167v2.571a6.664 6.664 0 01-1.965 4.744l-.852.851h-6.516A1.167 1.167 0 0021 28v12.833A1.167 1.167 0 0022.167 42h20.416a2.916 2.916 0 002.727-3.953 2.915 2.915 0 001.167-3.5 2.915 2.915 0 001.167-3.5 2.916 2.916 0 00-1.56-5.38zm-22.75 3.5H28v10.5h-4.667v-10.5zm22.75 0h-1.166a1.167 1.167 0 100 2.333.583.583 0 110 1.167H43.75a1.167 1.167 0 100 2.333.583.583 0 010 1.167h-1.167a1.167 1.167 0 100 2.333.583.583 0 010 1.167h-12.25V28.483l.852-.851a8.983 8.983 0 002.648-6.394v-1.405H35A1.168 1.168 0 0136.167 21v3.5a3.504 3.504 0 003.5 3.5h6.416a.583.583 0 010 1.167zM32.58 50.196l1.08.784-.412 1.269a.437.437 0 00.673.489L35 51.954l1.08.784a.438.438 0 00.672-.49l-.412-1.268 1.08-.784a.438.438 0 00-.258-.792h-1.334l-.412-1.268a.438.438 0 00-.832 0l-.412 1.268h-1.334a.437.437 0 00-.257.792zm-6.732.844l1.079.783-.412 1.27a.438.438 0 00.673.488l1.08-.784 1.078.784a.437.437 0 00.674-.489l-.413-1.269 1.08-.784a.438.438 0 00-.258-.791h-1.334l-.412-1.269a.437.437 0 00-.832 0l-.412 1.269h-1.334a.437.437 0 00-.257.791zm13.465 0l1.08.783-.413 1.27a.438.438 0 00.674.488l1.079-.784 1.079.784a.437.437 0 00.673-.489l-.412-1.269 1.08-.784a.437.437 0 00-.258-.791H42.56l-.412-1.269a.439.439 0 00-.833 0l-.412 1.269H39.57a.437.437 0 00-.257.791z" fill="#DD0060"/></svg>