<svg width="46" height="70" fill="none" xmlns="http://www.w3.org/2000/svg"><g clip-path="url(#clip0)"><path d="M23 0c-.669 0-1.21.55-1.21 1.228v1.29C9.588 3.176.02 13.394 0 25.79v2.457c0 .425.217.82.574 1.045.356.223.802.244 1.177.054l.95-.483a11.453 11.453 0 0 1 11.202.436c.011.007.023.008.034.015.01.006.053.022.08.035.107.051.222.085.34.102.022 0 .039.017.06.019.022.002.073 0 .11 0a1.19 1.19 0 0 0 .46-.096h.015l2.991-1.3a11.491 11.491 0 0 1 3.797-.924v5.526l-2.04-.689a1.198 1.198 0 0 0-1.092.171 1.234 1.234 0 0 0-.5 1v2.948a3.714 3.714 0 0 0 .605 2.044l.794 1.208c-5.59.54-9.863 5.297-9.873 10.994v12.28c-1.759.038-3.252 1.318-3.583 3.07a3.719 3.719 0 0 0 .808 2.994A3.61 3.61 0 0 0 9.684 70h26.632a3.617 3.617 0 0 0 2.94-1.514 3.73 3.73 0 0 0 .52-3.304 3.71 3.71 0 0 0-3.46-2.55V50.35c-.007-4.572-2.786-8.668-6.992-10.307a15.735 15.735 0 0 0 5.427-3.562 1.24 1.24 0 0 0-.015-1.721 1.198 1.198 0 0 0-1.697-.015 13.339 13.339 0 0 1-5.197 3.258l-.667.226.057-.087a3.71 3.71 0 0 0 .61-2.038v-2.947c0-.395-.187-.766-.502-.997a1.196 1.196 0 0 0-1.09-.169l-2.04.69v-5.449c1.247.18 2.456.562 3.582 1.133l1.93.982c.013 0 .03 0 .045.01.155.075.324.114.496.116h.11a1.16 1.16 0 0 0 .337-.102c.03-.012.065-.008.094-.023l1.513-.767a11.551 11.551 0 0 1 10.419 0l1.513.767c.376.191.822.17 1.18-.055.356-.225.573-.622.571-1.048V25.79c-.02-12.396-9.588-22.614-21.79-23.271v-1.29A1.22 1.22 0 0 0 23 0zm-9.475 26.37a13.658 13.658 0 0 0-11.104-.08v-.5c.014-10.636 7.9-19.566 18.319-20.745a54.232 54.232 0 0 0-7.215 21.324zm20.37 23.98v12.416c0 1.282 1.025 2.32 2.288 2.322a1.303 1.303 0 0 1 1.275.813c.131.387.067.814-.172 1.145a1.195 1.195 0 0 1-.97.498H9.684a1.2 1.2 0 0 1-.928-.44 1.24 1.24 0 0 1-.264-1.003 1.315 1.315 0 0 1 1.325-1.013c1.263-.001 2.287-1.04 2.288-2.321V50.35c.006-4.746 3.796-8.591 8.474-8.597h4.842c4.678.006 8.468 3.851 8.474 8.597zM25.42 34.862v1.244c0 .243-.072.48-.203.682l-1.655 2.511h-1.126l-1.655-2.517a1.264 1.264 0 0 1-.203-.676v-1.243l2.039.69c.248.083.516.083.764 0l2.04-.69zm18.16-9.072v.47a13.954 13.954 0 0 0-12.27.087l-.064-.713A53.746 53.746 0 0 0 25.098 5.02C35.59 6.125 43.566 15.088 43.579 25.79zm-14.747.066l.028.306c-3.697-1.874-8.02-2-11.818-.347l-1.063.466a51.738 51.738 0 0 1 6.954-20.164 51.287 51.287 0 0 1 5.9 19.739z" fill="#37A58C"/><path d="M24.291 47.5h-4.59a.757.757 0 0 0-.541.229.79.79 0 0 0-.224.552v7.032h-1.53v1.562h1.53V60h1.53v-3.125h5.355v-1.563h-5.355V53.75h3.825c.812 0 1.59-.33 2.164-.915.574-.586.896-1.381.896-2.21s-.322-1.624-.896-2.21a3.028 3.028 0 0 0-2.164-.915zm0 4.688h-3.825v-3.126h3.825c.406 0 .795.165 1.082.458.287.293.448.69.448 1.105 0 .414-.161.812-.448 1.105a1.514 1.514 0 0 1-1.082.458z" fill="#DD0060"/></g><defs><clipPath id="clip0"><path fill="#fff" d="M0 0h46v70H0z"/></clipPath></defs></svg>