<svg width="80" height="69" fill="none" xmlns="http://www.w3.org/2000/svg"><path d="M79.796 39.002L64.71.912A1.566 1.566 0 0 0 62.673.03h-.002L1.464 24.537a1.53 1.53 0 0 0-.628.501A1.56 1.56 0 0 0 0 26.407v41.005c0 .871.702 1.577 1.569 1.577H67.45c.866 0 1.569-.706 1.569-1.577V45.017l9.9-3.965a1.58 1.58 0 0 0 .876-2.05zM65.882 65.835H3.137V27.983h62.745v37.852zm-39.71-40.998l26.266-10.523a12.448 12.448 0 0 0 8.993 3.899l2.62 6.624h-37.88zM69.02 41.629V26.406c0-.87-.703-1.577-1.569-1.577h-.025l-3.324-8.393a1.303 1.303 0 0 0-.129-.2 1.55 1.55 0 0 0-1.639-1.213 9.358 9.358 0 0 1-8.224-3.562 1.549 1.549 0 0 0-2.013-.353 1.761 1.761 0 0 0-.22.041L19.81 23.987a1.554 1.554 0 0 0-.861.842H9.211L62.375 3.546l13.928 35.162-7.283 2.92z" fill="#37A58C"/><path d="M7.395 55.188a9.405 9.405 0 0 1 6.332 6.359 1.57 1.57 0 0 0 1.503 1.126 1.43 1.43 0 0 0 .241-.037c.07.02.143.035.215.045h37.647a1.34 1.34 0 0 0 .192-.04 1.46 1.46 0 0 0 1.764-1.08l.002-.008a9.404 9.404 0 0 1 6.333-6.367 1.557 1.557 0 0 0 1.076-1.735c.02-.076.036-.154.045-.233V40.6a1.425 1.425 0 0 0-.047-.234 1.555 1.555 0 0 0-1.076-1.735 9.395 9.395 0 0 1-6.33-6.368 1.55 1.55 0 0 0-1.738-1.082 1.475 1.475 0 0 0-.22-.044H15.685c-.079.01-.157.025-.233.047a1.55 1.55 0 0 0-1.726 1.082 9.405 9.405 0 0 1-6.332 6.365 1.557 1.557 0 0 0-1.077 1.735c-.02.077-.035.155-.043.234v12.617c.009.074.023.147.043.219a1.562 1.562 0 0 0 1.077 1.75zM9.412 41.24a12.481 12.481 0 0 0 6.911-6.949h36.372a12.485 12.485 0 0 0 6.913 6.949v11.336a12.495 12.495 0 0 0-6.911 6.95H16.322a12.495 12.495 0 0 0-6.911-6.95V41.241z" fill="#37A58C"/><path d="M34.51 56.372c5.198 0 9.412-4.237 9.412-9.463 0-5.226-4.214-9.463-9.412-9.463s-9.412 4.237-9.412 9.463c.005 5.224 4.216 9.458 9.412 9.463zm0-15.771c3.465 0 6.274 2.824 6.274 6.308s-2.809 6.309-6.274 6.309-6.275-2.825-6.275-6.309 2.81-6.308 6.275-6.308zm-17.255 8.674a2.36 2.36 0 0 0 2.353-2.366 2.36 2.36 0 0 0-2.353-2.366 2.36 2.36 0 0 0-2.353 2.366 2.36 2.36 0 0 0 2.353 2.366zm0-3.154c.433 0 .784.353.784.788a.787.787 0 0 1-.784.789.787.787 0 0 1-.784-.789c0-.435.35-.788.784-.788zm34.51 3.154a2.36 2.36 0 0 0 2.353-2.366 2.36 2.36 0 0 0-2.353-2.366 2.36 2.36 0 0 0-2.353 2.366 2.36 2.36 0 0 0 2.353 2.366zm0-3.154c.433 0 .784.353.784.788a.786.786 0 0 1-.784.789.787.787 0 0 1-.785-.789c0-.435.352-.788.785-.788z" fill="#DD0060"/></svg>