<svg width="40" height="40" fill="none" xmlns="http://www.w3.org/2000/svg"><path d="M10.876 11.788L19.088 20l-8.212 8.212a.645.645 0 0 0 .912.912L20 20.912l8.212 8.212a.645.645 0 0 0 .912-.912L20.912 20l8.212-8.212a.645.645 0 1 0-.912-.912L20 19.088l-8.212-8.212a.645.645 0 0 0-.928.897l.016.015z" fill="#000"/><path d="M39.355 0H.645A.645.645 0 0 0 0 .645v38.71c0 .356.289.645.645.645h38.71a.645.645 0 0 0 .645-.645V.645A.645.645 0 0 0 39.355 0zm-.645 38.71H1.29V1.29h37.42v37.42z" fill="#000"/></svg>