<svg width="183" height="41" fill="none" xmlns="http://www.w3.org/2000/svg"><g clip-path="url(#clip0_289_464)"><path d="M85.936 35.241c0 1.01-.23 1.824-.69 2.442-.46.617-1.082.926-1.867.926-.801 0-1.431-.256-1.891-.767v3.196h-1.129v-9.19h1.031l.055.737c.46-.573 1.099-.859 1.916-.859.793 0 1.42.3 1.879.902.464.601.696 1.437.696 2.509v.104zm-1.13-.129c0-.748-.158-1.34-.475-1.773-.317-.433-.752-.65-1.306-.65-.683 0-1.195.305-1.537.914v3.172c.338.605.854.908 1.55.908.54 0 .97-.215 1.287-.644.321-.434.482-1.076.482-1.927zm5.309 3.497c-.895 0-1.623-.294-2.184-.883-.562-.593-.842-1.385-.842-2.374v-.209c0-.659.124-1.245.372-1.76.252-.52.602-.925 1.05-1.215a2.63 2.63 0 011.463-.442c.858 0 1.525.284 2.001.853.476.568.714 1.382.714 2.441v.473h-4.472c.017.654.206 1.184.568 1.588.366.401.83.602 1.39.602.4 0 .737-.082 1.013-.246.277-.163.519-.38.726-.65l.69.54c-.553.855-1.383 1.282-2.49 1.282zm-.14-5.95c-.456 0-.839.167-1.148.502-.309.332-.5.798-.573 1.4h3.306v-.087c-.032-.576-.187-1.022-.463-1.337-.277-.319-.65-.479-1.123-.479zm7.827 4.324l2.245-5.134h1.409v6.637h-1.129v-4.828l-2.135 4.828h-.78l-2.179-4.932v4.932h-1.129V31.85h1.465l2.233 5.134zm5.173-1.877c0-.65.126-1.235.378-1.754.257-.52.61-.92 1.062-1.203a2.892 2.892 0 011.556-.423c.898 0 1.624.313 2.178.939.557.625.835 1.458.835 2.496v.08c0 .646-.124 1.227-.372 1.742-.244.512-.596.91-1.055 1.197-.456.286-.98.429-1.574.429-.895 0-1.621-.313-2.178-.939-.553-.625-.83-1.453-.83-2.484v-.08zm1.135.135c0 .736.169 1.327.506 1.773.342.446.797.669 1.367.669.573 0 1.029-.225 1.366-.675.338-.454.507-1.088.507-1.902 0-.728-.173-1.317-.519-1.767a1.624 1.624 0 00-1.366-.68c-.558 0-1.007.222-1.349.668-.341.446-.512 1.084-.512 1.914zm11.683 3.245h-1.129v-2.834h-3.032v2.834h-1.135V31.85h1.135v2.877h3.032V31.85h1.129v6.637zm6.723-5.717h-2.215v5.717h-1.128V32.77h-2.172v-.92h5.515v.92zm5.02 2.337c0-.65.126-1.235.378-1.754.256-.52.61-.92 1.062-1.203a2.89 2.89 0 011.555-.423c.899 0 1.625.313 2.178.939.558.625.836 1.458.836 2.496v.08c0 .646-.124 1.227-.372 1.742-.244.512-.596.91-1.055 1.197-.456.286-.981.429-1.574.429-.895 0-1.621-.313-2.178-.939-.553-.625-.83-1.453-.83-2.484v-.08zm1.135.135c0 .736.168 1.327.506 1.773.342.446.797.669 1.367.669.573 0 1.029-.225 1.366-.675.338-.454.507-1.088.507-1.902 0-.728-.173-1.317-.519-1.767a1.626 1.626 0 00-1.367-.68c-.557 0-1.006.222-1.348.668-.341.446-.512 1.084-.512 1.914zm11.06-2.472h-2.214v5.717h-1.129V32.77h-2.172v-.92h5.515v.92zm9.68 3.386h-3.721l-.836 2.331h-1.208l3.392-8.932h1.025l3.398 8.932h-1.202l-.848-2.33zm-3.368-.97h3.02l-1.513-4.177-1.507 4.178zm9.481 2.375l.391-.485c.439-.572.689-1.431.75-2.576l.104-2.65h4.252v5.711h.848v2.877h-1.129v-1.95h-4.606v1.95h-1.128l.006-2.877h.512zm1.336 0h3.032v-4.662h-2.031l-.067 1.582c-.069 1.321-.381 2.348-.934 3.08zm5.961-2.454c0-.65.126-1.235.378-1.754.256-.52.61-.92 1.062-1.203a2.89 2.89 0 011.555-.423c.899 0 1.625.313 2.178.939.557.625.836 1.458.836 2.496v.08c0 .646-.124 1.227-.372 1.742a2.79 2.79 0 01-1.056 1.197c-.455.286-.98.429-1.574.429-.894 0-1.62-.313-2.178-.939-.553-.625-.829-1.453-.829-2.484v-.08zm1.135.135c0 .736.168 1.327.506 1.773.342.446.797.669 1.366.669.574 0 1.029-.225 1.367-.675.338-.454.506-1.088.506-1.902 0-.728-.172-1.317-.518-1.767a1.626 1.626 0 00-1.367-.68c-.557 0-1.006.222-1.348.668-.342.446-.512 1.084-.512 1.914zm14.214 3.245v-3.478h-2.049l-1.837 3.478h-1.25l2.062-3.803c-1.147-.454-1.721-1.266-1.721-2.435 0-.851.277-1.512.83-1.982.557-.474 1.33-.712 2.318-.712h2.825v8.932h-1.178zm-3.623-6.238c0 .54.166.973.5 1.3.337.327.805.493 1.403.497h1.72v-3.521h-1.665c-.635 0-1.121.151-1.458.454-.334.302-.5.725-.5 1.27z" fill="#646363"/><path d="M20.742 22.78H1.883a1.876 1.876 0 01-1.331-.555A1.894 1.894 0 010 20.885V1.924A1.9 1.9 0 01.552.584 1.878 1.878 0 011.883.029h18.859c.5 0 .98.2 1.333.555.354.355.554.836.555 1.34v18.962a1.902 1.902 0 01-.553 1.34 1.884 1.884 0 01-1.335.553z" fill="#525251"/><path d="M11.01 4.066c-.627 0-.88.234-1.102.825L5.34 16.834a1.526 1.526 0 00.485 1.743c.03.034 1.87 1.884 4.185 4.202h10.732a1.875 1.875 0 001.335-.553 1.893 1.893 0 00.553-1.34v-6.219C18.844 10.855 12.563 4.285 12.495 4.232c-.282-.366-.927-.22-1.403-.22" fill="#282727"/><path d="M4.893 17.21h1.383L8.13 13.1h5.947l1.854 4.11h1.388L11.84 4.95h-1.422L4.893 17.21zm3.742-5.222l2.495-5.613 2.461 5.613H8.635z" fill="#fff"/><path d="M4.893 17.21v.976h1.383a.967.967 0 00.889-.576l1.572-3.533h4.709l1.602 3.533a.974.974 0 00.883.576h1.388a.967.967 0 00.814-.446.979.979 0 00.07-.93L12.727 4.544a.974.974 0 00-.888-.57h-1.422a.967.967 0 00-.884.57L4.01 16.805a.981.981 0 00.419 1.262c.142.078.302.12.465.12v-.977l.883.4 5.267-11.685h.17l5.233 11.685.888-.4v-.976h-.762l-1.597-3.544a.974.974 0 00-.898-.566H8.13a.966.966 0 00-.884.566l-1.592 3.54h-.762v.975l.883.4-.883-.4v.005zm3.742-5.222l.884.4 1.607-3.602.97 2.23h-3.46v.976l.883.4-.884-.4v.977h4.956a.967.967 0 00.812-.442.98.98 0 00.077-.925l-2.461-5.623a.975.975 0 00-.889-.58.967.967 0 00-.888.575l-2.476 5.618a.98.98 0 00.426 1.254.967.967 0 00.463.118v-.976h-.02z" fill="#fff"/><path d="M47.497 22.78H28.64a1.875 1.875 0 01-1.335-.553 1.896 1.896 0 01-.553-1.341V1.923c.001-.503.2-.984.555-1.34A1.883 1.883 0 0128.639.03h18.858c.5 0 .98.2 1.334.555.354.355.553.836.555 1.34v18.962a1.904 1.904 0 01-.554 1.34 1.884 1.884 0 01-1.335.553z" fill="#525251"/><path d="M37.479 4.056l-.534.083c-.413 0-4.908 11.656-4.908 12.49l-.616.527c0 .489.539.977.893 1.274a53.039 53.039 0 015.063 4.35h10.145a1.876 1.876 0 001.744-1.169c.095-.23.144-.476.144-.725v-7.454c-3.66-3.67-7.994-8.014-8.048-8.063a4.324 4.324 0 00-3.252-1.386" fill="#282727"/><path d="M38.493 4.944h-1.146L32.31 17.21h1.33l4.28-10.723 4.243 10.723h1.33l-5-12.266z" fill="#fff"/><path d="M38.493 4.95v-.977h-1.15a.967.967 0 00-.893.6l-5.034 12.261a.98.98 0 00.438 1.238c.142.076.3.115.46.114h1.325a.967.967 0 00.903-.615l3.398-8.453 3.32 8.453a.975.975 0 00.898.615h1.335a.967.967 0 00.806-.434.98.98 0 00.092-.913l-5-12.26a.975.975 0 00-.898-.606v.976l-.898.366 5 12.256.898-.37v-.977h-.67l-3.99-10.098a.974.974 0 00-.9-.612.967.967 0 00-.9.612l-4.025 10.108h-.694v.976l.893.371 4.786-11.656h.486V4.95l-.898.366.898-.366h.014z" fill="#fff"/><path d="M74.268 22.78H55.4a1.875 1.875 0 01-1.335-.553 1.896 1.896 0 01-.553-1.341V1.923c.001-.503.2-.984.554-1.34A1.883 1.883 0 0155.4.03h18.868A1.875 1.875 0 0175.6.584a1.893 1.893 0 01.551 1.34v18.962a1.902 1.902 0 01-1.162 1.75 1.876 1.876 0 01-.721.143z" fill="#525251"/><path d="M65.4 4.969c-1.884 0-3.67.322-4.99 1.767a6.195 6.195 0 00-1.738 4.671 7.775 7.775 0 002.004 5.247l6.087 6.125h7.505a1.874 1.874 0 001.332-.554 1.894 1.894 0 00.551-1.34V12.55c-2.936-2.953-5.577-5.564-5.616-5.603a7.94 7.94 0 00-5.063-1.992" fill="#282727"/><path d="M64.429 18.357h1.218v-1.732c3.145 0 5.451-2.27 5.451-5.34s-2.305-5.325-5.45-5.34V4.393h-1.22v1.552c-3.15 0-5.455 2.27-5.455 5.34s2.305 5.32 5.456 5.34v1.732zm0-2.85a4.028 4.028 0 01-3.042-1.175 4.071 4.071 0 01-1.196-3.047 4.092 4.092 0 011.196-3.048 4.046 4.046 0 013.042-1.174v8.444zm1.218-8.444a4.028 4.028 0 013.051 1.169 4.072 4.072 0 011.201 3.053 4.091 4.091 0 01-1.194 3.045 4.046 4.046 0 01-3.038 1.177V7.063h-.02z" fill="#fff"/><path d="M64.428 18.357v.977h1.219a.968.968 0 00.686-.287.979.979 0 00.285-.69v-1.732h-.971v.976c1.7.02 3.342-.627 4.577-1.801a6.243 6.243 0 001.84-4.515 6.243 6.243 0 00-1.84-4.515 6.533 6.533 0 00-4.577-1.801v.976h.97V4.393a.979.979 0 00-.97-.976h-1.219a.968.968 0 00-.686.286.98.98 0 00-.284.69v1.552h.97v-.976a6.543 6.543 0 00-4.582 1.8 6.236 6.236 0 00-1.84 4.516 6.26 6.26 0 001.84 4.515 6.543 6.543 0 004.582 1.8v-.976h-.97v1.733c0 .26.102.508.284.69a.968.968 0 00.686.287v-.977h.971v-1.732a.979.979 0 00-.284-.69.968.968 0 00-.687-.287 4.587 4.587 0 01-3.237-1.25 4.276 4.276 0 01-1.253-3.113 4.296 4.296 0 011.253-3.114 4.588 4.588 0 013.237-1.25.968.968 0 00.687-.286.98.98 0 00.284-.69v-.576h.248v-.976h-.971v1.552c0 .259.102.507.284.69a.968.968 0 00.687.286 4.563 4.563 0 013.233 1.25 4.258 4.258 0 011.252 3.114 4.278 4.278 0 01-1.252 3.114 4.563 4.563 0 01-3.233 1.25.968.968 0 00-.687.285.978.978 0 00-.284.69v.757h-.248v.976zm0-2.85v-.976h-.024a3.155 3.155 0 01-2.373-.942 3.334 3.334 0 01-.87-2.304c-.017-.85.29-1.675.86-2.304a3.168 3.168 0 012.373-.942h.025v-.976h-.971v8.444h.97v-.976.976h.971V7.063a.98.98 0 00-.284-.69.968.968 0 00-.686-.286h-.04a5.087 5.087 0 00-3.78 1.547 5.298 5.298 0 00-1.38 3.65 5.297 5.297 0 001.394 3.652 5.128 5.128 0 003.781 1.547h.04a.968.968 0 00.686-.286.979.979 0 00.284-.69h-.976zm1.219-8.444v.976h.029a3.145 3.145 0 012.369.942c.58.624.896 1.45.883 2.304.02.85-.288 1.675-.859 2.304a3.159 3.159 0 01-2.369.942h-.029v.976h.97V7.063h-1.94v8.444c0 .259.102.507.284.69a.968.968 0 00.686.286h.044a5.101 5.101 0 003.776-1.547 5.273 5.273 0 001.379-3.651 5.273 5.273 0 00-1.393-3.651A5.106 5.106 0 0065.7 6.087h-.044a.968.968 0 00-.686.285.979.979 0 00-.284.69h.96z" fill="#fff"/><path d="M101.014 22.78H82.156a1.87 1.87 0 01-1.333-.554 1.891 1.891 0 01-.55-1.34V1.923a1.9 1.9 0 01.551-1.339 1.878 1.878 0 011.332-.555h18.858a1.878 1.878 0 011.749 1.167c.095.23.144.478.144.727v18.963a1.915 1.915 0 01-.551 1.339 1.89 1.89 0 01-1.332.554h-.01z" fill="#525251"/><path d="M90.922 4.359l-.204-.113c-.835 0-1.029.347-1.369 1.186l-3.83 11.944a1.515 1.515 0 00.583 1.196c.03.034 1.879 1.904 4.17 4.207h10.742a1.877 1.877 0 001.749-1.166c.095-.23.144-.478.144-.727v-7.293a766.904 766.904 0 00-8.393-8.297c-1.359-1.435-1.835-1.313-3.951-1.313" fill="#282727"/><path d="M85.282 17.21h1.32l1.743-4.11h5.675l1.762 4.11h1.32L91.893 4.95h-1.349l-5.262 12.26zm3.549-5.222l2.373-5.613 2.34 5.613H88.83z" fill="#fff"/><path d="M85.282 18.186h1.32a.966.966 0 00.889-.59l1.514-3.52h4.369l1.514 3.52a.974.974 0 00.889.59h1.32a.967.967 0 00.812-.438.98.98 0 00.081-.923L92.787 4.564a.975.975 0 00-.894-.59h-1.349a.967.967 0 00-.893.585l-5.262 12.26a.981.981 0 00.507 1.287.968.968 0 001.28-.51l5.004-11.67h.078l4.975 11.67.893-.386v-.976h-.68l-1.514-3.52a.974.974 0 00-.888-.59h-5.699a.967.967 0 00-.888.59l-1.515 3.52h-.68a.968.968 0 00-.686.286.979.979 0 00.687 1.666h.02zm3.549-6.198l.893.385 1.456-3.49.888 2.128h-3.237v.977l.893.385-.893-.385v.976h4.713a.967.967 0 00.81-.434.979.979 0 00.088-.918l-2.345-5.618a.975.975 0 00-.893-.594.967.967 0 00-.893.594l-2.374 5.618a.98.98 0 00.083.922.972.972 0 00.81.435v-.981z" fill="#fff"/><path d="M127.77 22.755h-18.858a1.883 1.883 0 01-1.332-.558 1.905 1.905 0 01-.552-1.34V1.893a1.9 1.9 0 01.552-1.34A1.878 1.878 0 01108.912 0h18.858c.499 0 .979.2 1.332.555a1.9 1.9 0 01.551 1.339v18.962a1.884 1.884 0 01-.55 1.343 1.879 1.879 0 01-1.333.556z" fill="#525251"/><path d="M116.931 4.041h-2.49c-.835 0-1.092.528-1.092 1.362v11.949c0 .488.087.605.582 1.19 0 .04 1.534 1.904 3.825 4.213h10.014a1.874 1.874 0 001.334-.556 1.904 1.904 0 00.55-1.343v-10.07a47.146 47.146 0 00-6.219-5.251c-2.145-1.577-4.456-1.464-5.198-1.523l-1.306.03z" fill="#282727"/><path d="M114.246 17.21h3.223c3.85 0 4.248-2.504 4.248-3.465 0-1.274-.588-2.665-2.054-3.114a2.83 2.83 0 001.418-2.441c0-3.085-2.675-3.23-3.884-3.23h-2.941v12.25h-.01zm1.175-1.103V11.31h2.048c1.16 0 3.053.215 3.053 2.44 0 2.138-1.941 2.334-3.053 2.334l-2.048.024zm0-5.896V6.057h1.767c.859 0 2.723.05 2.723 2.07 0 1.889-1.738 2.074-2.723 2.074l-1.767.01z" fill="#fff"/><path d="M114.246 17.21v.976h3.223a6.68 6.68 0 002.67-.488 4.073 4.073 0 002.349-2.567c.135-.446.204-.91.204-1.377a4.664 4.664 0 00-.611-2.362 3.645 3.645 0 00-2.126-1.684l-.287.932.524.825a4.265 4.265 0 001.214-1.142 3.678 3.678 0 00.65-2.133 4.437 4.437 0 00-.577-2.333 3.454 3.454 0 00-1.039-1.093 4.539 4.539 0 00-1.796-.688 8.136 8.136 0 00-1.456-.113h-2.942a.968.968 0 00-.686.286.98.98 0 00-.285.69V17.21a.98.98 0 00.285.69.968.968 0 00.686.286v-.976h.971V5.925h1.971c.324-.004.649.015.971.06.495.048.966.238 1.359.546.178.158.316.357.403.58.128.342.189.705.179 1.07.01.36-.095.714-.301 1.01a2.263 2.263 0 01-.665.615.977.977 0 00-.218 1.456c.12.142.279.246.456.301.433.126.8.417 1.024.81.232.42.349.893.34 1.372-.001.235-.03.47-.087.698a2.34 2.34 0 01-.253.6c-.21.342-.513.616-.873.79a4.535 4.535 0 01-2.063.401h-3.228v.976h.014zm1.175-1.103h.971v-3.822h1.077c.273-.002.546.018.816.059a1.8 1.8 0 01.922.376.94.94 0 01.233.351c.081.222.119.457.112.693.015.259-.044.516-.17.742a.94.94 0 01-.277.278c-.228.136-.48.227-.743.269a5.139 5.139 0 01-.893.078h-2.053v1.952h2.053a5.315 5.315 0 002.374-.488 2.954 2.954 0 001.18-1.054 3.296 3.296 0 00.485-1.787 3.538 3.538 0 00-.447-1.825 2.923 2.923 0 00-.83-.903 3.766 3.766 0 00-1.456-.595 6.978 6.978 0 00-1.277-.108h-2.053a.967.967 0 00-.684.288.976.976 0 00-.287.688v4.808a.986.986 0 00.287.693.967.967 0 00.684.283v-.976h-.024zm0-5.896h.971V7.033h.796a5.36 5.36 0 01.67.035c.165.015.328.05.485.102a.878.878 0 01.432.278c.134.2.195.44.175.679a1.12 1.12 0 01-.136.6.732.732 0 01-.214.21c-.19.115-.401.192-.621.225-.258.044-.52.065-.781.063h-1.767v1.952h1.767a4.825 4.825 0 002.164-.434 2.715 2.715 0 001.093-.976 3.077 3.077 0 00.436-1.645 3.09 3.09 0 00-.485-1.708 2.607 2.607 0 00-.83-.806 3.568 3.568 0 00-1.354-.488 7.427 7.427 0 00-1.044-.063h-1.767a.967.967 0 00-.684.288.976.976 0 00-.287.688V10.2a.98.98 0 00.285.69.968.968 0 00.686.286V10.2l.01.01z" fill="#fff"/><path d="M154.545 22.78h-18.858a1.88 1.88 0 01-1.74-1.17 1.896 1.896 0 01-.143-.724V1.923a1.9 1.9 0 01.551-1.339 1.881 1.881 0 011.332-.555h18.858c.5 0 .98.2 1.334.555.354.355.553.836.555 1.34v18.962a1.902 1.902 0 01-.554 1.34 1.877 1.877 0 01-1.335.553z" fill="#525251"/><path d="M148.866 4.261H141.1c-.835 0-1.326.679-1.326 1.518v11.597a1.52 1.52 0 00.583 1.196c.029.034 1.878 1.904 4.17 4.207h10.014a1.876 1.876 0 001.744-1.168c.095-.23.144-.476.144-.725v-10.07c-3.155-3.172-5.772-6.184-5.825-6.223-.277-.356-1.184-.332-1.67-.332" fill="#282727"/><path d="M140.356 5.223v12.26h1.267l7.141-10.518v10.519h1.204V5.223h-1.267l-7.141 10.523V5.223h-1.204z" fill="#fff"/><path d="M140.357 5.223h-.971v12.26c0 .26.102.508.284.69a.968.968 0 00.687.287h1.266a.966.966 0 00.801-.425l5.369-7.907v7.356a.98.98 0 00.284.69.968.968 0 00.687.286h1.228a.975.975 0 00.971-.976V5.223a.976.976 0 00-.971-.977h-1.267a.968.968 0 00-.801.425l-5.398 7.912v-7.36a.979.979 0 00-.284-.69.968.968 0 00-.686-.287h-1.199a.98.98 0 00-.971.976h.971V6.2h.228v9.547a.978.978 0 00.684.94.965.965 0 001.092-.389L149.21 6.2h.782v-.976h-.971v11.284h-.233v.977h.971V6.965a.98.98 0 00-.684-.932.965.965 0 00-1.088.38l-6.878 10.094h-.752v.977h.97V5.223h-.97z" fill="#fff"/><path d="M181.301 22.78h-18.853c-.5 0-.98-.2-1.334-.555a1.902 1.902 0 01-.554-1.34V1.924c.001-.503.2-.984.554-1.34a1.884 1.884 0 011.334-.554h18.853c.5 0 .98.2 1.334.555.354.355.553.836.554 1.34v18.962c-.001.502-.2.984-.554 1.339a1.884 1.884 0 01-1.334.554z" fill="#525251"/><path d="M168.982 3.905c-.835 0-1.292.605-1.292 1.44 0 .488 0 .976.364 1.274.073.097 2.209 3.162 2.306 3.236.097.073-.073.068.024.146v7.365a1.508 1.508 0 00.583 1.191c.029.04 1.878 1.904 4.17 4.213h6.184c.501 0 .981-.2 1.335-.556.354-.356.553-.84.553-1.343V10.67c-3.107-3.124-6.121-6.15-6.17-6.184a2.539 2.539 0 00-1.805-.64" fill="#282727"/><path d="M171.204 17.069h1.16V5.92h2.655V4.808h-6.465V5.92h2.65v11.148z" fill="#fff"/><path d="M171.204 17.083v.977h1.16a.968.968 0 00.687-.286.979.979 0 00.284-.69V6.896h1.684a.968.968 0 00.687-.286.979.979 0 00.284-.69V4.808a.979.979 0 00-.284-.69.968.968 0 00-.687-.286h-6.465a.964.964 0 00-.689.288.978.978 0 00-.282.688V5.92a.978.978 0 00.598.901c.118.05.245.075.373.075h1.679v10.186a.98.98 0 00.285.69.968.968 0 00.686.287v-.977h.971V5.921a.979.979 0 00-.284-.69.968.968 0 00-.687-.287h-1.679v-.136h-.971v.976h5.495v.137h.97v-.977h-2.655a.968.968 0 00-.686.286.98.98 0 00-.285.69v10.187h-.189v.976z" fill="#fff"/></g><defs><clipPath id="clip0_289_464"><path fill="#fff" d="M0 0h183v41H0z"/></clipPath></defs></svg>