<svg width="156" height="50" fill="none" xmlns="http://www.w3.org/2000/svg"><path d="M11.187 2.25c-3.065 1.638-6.19 3.27-8.804 6.015C-.05 10.77-.682 15.04.78 18.263a34.3 34.3 0 0 0 6.053 8.52A34.71 34.71 0 0 1 11.187 2.25z" fill="#37A58C"/><path d="M8.639 28.416c3.01 1.927 6.02 3.799 9.52 4.615 3.818.878 7.35-.7 9.606-3.799a39.627 39.627 0 0 0 4.083-9.348 34.156 34.156 0 0 1-23.21 8.532z" fill="#DD0060"/><path d="M31.265 4.877a9.359 9.359 0 0 0-3.047-3.342A9.248 9.248 0 0 0 23.974.028a36.357 36.357 0 0 0-10.185 1.05c7.522 2.471 15.055 8.764 18.868 16.068.17-4.204.358-8.703-1.392-12.27z" fill="#505050"/><path d="M155.4 46.684c.457-1.267.656-2.614.583-3.96v-25.55h-8.666v25.35a1.84 1.84 0 0 1-1.095 1.71 1.804 1.804 0 0 1-.693.15h-.187a1.777 1.777 0 0 1-1.292-.436 1.809 1.809 0 0 1-.612-1.23v-25.55h-8.628v25.55a10.102 10.102 0 0 0 .55 3.966 5.72 5.72 0 0 0 1.509 1.97c.64.536 1.389.924 2.194 1.135a11.58 11.58 0 0 0 2.35.2h7.918c.791.015 1.582-.048 2.361-.189a5.626 5.626 0 0 0 2.201-1.137 5.685 5.685 0 0 0 1.507-1.979zm-40.861-29.527c-2.801 0-4.754 2.444-4.732 5.366v27.466h8.804V36.353h3.587V49.99h8.76V17.158h-16.419zm7.648 13.564h-3.571v-6.665c0-1.216.452-1.666 1.547-1.666h2.024v8.331zM97.113 17.157v13.564H93.26V17.157h-8.842V49.99h8.859V36.353h3.796V49.99h8.87V17.158h-8.831zm-22.522 6.355H80.6v-6.355H65.71V49.99h14.9v-6.36h-6.052v-7.276h5.134v-5.632h-5.134l.033-7.21zm-17.134 9.849a5.37 5.37 0 0 0 3.132-1.836 5.462 5.462 0 0 0 1.27-3.424v-5.554c-.05-2.972-2.201-5.366-4.546-5.366h-16.76v32.81h8.732V36.355h2.201c1.1 0 1.536.517 1.536 1.705v11.93h8.837V38.7c0-2.9-2.317-5.093-4.402-5.338zm-4.474-4.26c.033.989-.38 1.577-1.1 1.666h-2.609v-8.331h2.201c1.1 0 1.552.555 1.536 1.666l-.028 4.999z" fill="#1C1C1C"/></svg>