<svg width="40" height="40" viewBox="0 0 40 40" fill="none" xmlns="http://www.w3.org/2000/svg">
<path d="M10.8761 11.7884L19.0878 20L10.8761 28.2116C10.6243 28.4636 10.6243 28.872 10.8761 29.1239C11.1281 29.3758 11.5365 29.3758 11.7884 29.1239L20 20.9123L28.2116 29.1239C28.4679 29.3715 28.8763 29.3644 29.1239 29.1081C29.3654 28.8581 29.3654 28.4616 29.1239 28.2116L20.9123 20L29.1239 11.7884C29.3802 11.5409 29.3873 11.1325 29.1397 10.8762C28.8921 10.6199 28.4837 10.6128 28.2274 10.8604C28.222 10.8655 28.2168 10.8708 28.2116 10.8762L20 19.0878L11.7884 10.8762C11.5409 10.6199 11.1324 10.6128 10.8761 10.8603C10.6198 11.1078 10.6127 11.5162 10.8602 11.7725C10.8655 11.7779 10.8707 11.7833 10.8761 11.7884Z" fill="black"/>
<path d="M39.3548 0H0.645161C0.288871 0 0 0.288871 0 0.645161V39.3548C0 39.7111 0.288871 40 0.645161 40H39.3548C39.7111 40 40 39.7111 40 39.3548V0.645161C40 0.288871 39.7111 0 39.3548 0ZM38.7097 38.7097H1.29032V1.29032H38.7097V38.7097Z" fill="black"/>
</svg>
