<svg width="40" height="40" viewBox="0 0 40 40" fill="none" xmlns="http://www.w3.org/2000/svg">
<path d="M34.1276 5.88367C41.9304 13.6927 41.9254 26.3484 34.1164 34.1512C26.3074 41.954 13.6516 41.949 5.84883 34.14C-1.94961 26.3355 -1.94961 13.6883 5.84883 5.88367C13.6072 -1.92532 26.227 -1.9663 34.036 5.79204C34.0666 5.82248 34.0971 5.85302 34.1276 5.88367Z" fill="#D7443E"/>
<path d="M29.9254 13.5495L23.452 20.023L29.9254 26.4964L26.4616 29.9602L19.9882 23.4868L13.5148 29.9602L10.0509 26.4964L16.5244 20.023L10.0509 13.5495L13.5148 10.0857L19.9882 16.5591L26.4616 10.0857L29.9254 13.5495Z" fill="#EBF0F3"/>
</svg>
