<svg width="183" height="41" viewBox="0 0 183 41" fill="none" xmlns="http://www.w3.org/2000/svg">
<g clip-path="url(#clip0_289_464)">
<path d="M85.9355 35.2411C85.9355 36.2513 85.7057 37.0651 85.2461 37.6827C84.7865 38.3002 84.1643 38.609 83.3793 38.609C82.578 38.609 81.9476 38.3534 81.488 37.8422V41.0383H80.3594V31.8487H81.3904L81.4453 32.5849C81.9049 32.0123 82.5435 31.726 83.361 31.726C84.1541 31.726 84.7804 32.0266 85.24 32.6278C85.7037 33.229 85.9355 34.0653 85.9355 35.1368V35.2411ZM84.8069 35.1123C84.8069 34.3639 84.6483 33.7729 84.331 33.3394C84.0138 32.9059 83.5786 32.6892 83.0254 32.6892C82.3421 32.6892 81.8297 32.9938 81.488 33.6032V36.7748C81.8256 37.38 82.3421 37.6827 83.0376 37.6827C83.5786 37.6827 84.0077 37.468 84.3249 37.0386C84.6462 36.605 84.8069 35.963 84.8069 35.1123Z" fill="#646363"/>
<path d="M90.1146 38.609C89.2198 38.609 88.4918 38.3145 87.9305 37.7256C87.3692 37.1326 87.0886 36.3413 87.0886 35.3516V35.143C87.0886 34.4845 87.2126 33.8977 87.4607 33.3824C87.7129 32.863 88.0627 32.4581 88.5101 32.1677C88.9615 31.8733 89.4496 31.726 89.9743 31.726C90.8325 31.726 91.4995 32.0103 91.9753 32.5787C92.4512 33.1472 92.6891 33.9611 92.6891 35.0203V35.4926H88.2172C88.2335 36.147 88.4226 36.6766 88.7846 37.0815C89.1507 37.4823 89.6143 37.6827 90.1756 37.6827C90.5742 37.6827 90.9118 37.6009 91.1883 37.4373C91.4649 37.2737 91.7069 37.057 91.9143 36.787L92.6037 37.3269C92.0506 38.1816 91.2209 38.609 90.1146 38.609ZM89.9743 32.6585C89.5187 32.6585 89.1364 32.8262 88.8273 33.1615C88.5182 33.4928 88.327 33.959 88.2538 34.5602H91.5605V34.4743C91.5279 33.8977 91.3734 33.4519 91.0968 33.137C90.8203 32.818 90.4461 32.6585 89.9743 32.6585Z" fill="#646363"/>
<path d="M97.8016 36.9833L100.047 31.8487H101.456V38.4863H100.327V33.6584L98.1921 38.4863H97.4112L95.2332 33.5541V38.4863H94.1045V31.8487H95.5687L97.8016 36.9833Z" fill="#646363"/>
<path d="M102.975 35.1062C102.975 34.4559 103.101 33.8711 103.353 33.3517C103.61 32.8323 103.963 32.4315 104.415 32.1493C104.87 31.8671 105.389 31.726 105.971 31.726C106.869 31.726 107.595 32.0389 108.149 32.6646C108.706 33.2903 108.984 34.1226 108.984 35.1614V35.2411C108.984 35.8873 108.86 36.468 108.612 36.9833C108.368 37.4946 108.016 37.8933 107.557 38.1796C107.101 38.4659 106.577 38.609 105.983 38.609C105.088 38.609 104.362 38.2961 103.805 37.6704C103.252 37.0447 102.975 36.2165 102.975 35.1859V35.1062ZM104.11 35.2411C104.11 35.9773 104.279 36.5682 104.616 37.014C104.958 37.4598 105.413 37.6827 105.983 37.6827C106.556 37.6827 107.012 37.4578 107.349 37.0079C107.687 36.5539 107.856 35.92 107.856 35.1062C107.856 34.3782 107.683 33.7893 107.337 33.3394C106.996 32.8855 106.54 32.6585 105.971 32.6585C105.413 32.6585 104.964 32.8814 104.622 33.3271C104.281 33.7729 104.11 34.4109 104.11 35.2411Z" fill="#646363"/>
<path d="M115.793 38.4863H114.664V35.6521H111.632V38.4863H110.497V31.8487H111.632V34.7258H114.664V31.8487H115.793V38.4863Z" fill="#646363"/>
<path d="M122.516 32.7689H120.301V38.4863H119.173V32.7689H117.001V31.8487H122.516V32.7689Z" fill="#646363"/>
<path d="M127.536 35.1062C127.536 34.4559 127.662 33.8711 127.914 33.3517C128.17 32.8323 128.524 32.4315 128.976 32.1493C129.431 31.8671 129.95 31.726 130.531 31.726C131.43 31.726 132.156 32.0389 132.709 32.6646C133.267 33.2903 133.545 34.1226 133.545 35.1614V35.2411C133.545 35.8873 133.421 36.468 133.173 36.9833C132.929 37.4946 132.577 37.8933 132.118 38.1796C131.662 38.4659 131.137 38.609 130.544 38.609C129.649 38.609 128.923 38.2961 128.366 37.6704C127.813 37.0447 127.536 36.2165 127.536 35.1859V35.1062ZM128.671 35.2411C128.671 35.9773 128.839 36.5682 129.177 37.014C129.519 37.4598 129.974 37.6827 130.544 37.6827C131.117 37.6827 131.573 37.4578 131.91 37.0079C132.248 36.5539 132.417 35.92 132.417 35.1062C132.417 34.3782 132.244 33.7893 131.898 33.3394C131.556 32.8855 131.101 32.6585 130.531 32.6585C129.974 32.6585 129.525 32.8814 129.183 33.3271C128.842 33.7729 128.671 34.4109 128.671 35.2411Z" fill="#646363"/>
<path d="M139.731 32.7689H137.517V38.4863H136.388V32.7689H134.216V31.8487H139.731V32.7689Z" fill="#646363"/>
<path d="M149.411 36.1552H145.69L144.854 38.4863H143.646L147.038 29.5544H148.063L151.461 38.4863H150.259L149.411 36.1552ZM146.043 35.1859H149.063L147.55 31.0083L146.043 35.1859Z" fill="#646363"/>
<path d="M155.524 37.56L155.915 37.0754C156.354 36.5028 156.604 35.644 156.665 34.4988L156.769 31.8487H161.021V37.56H161.869V40.4371H160.74V38.4863H156.134V40.4371H155.006L155.012 37.56H155.524ZM156.86 37.56H159.892V32.8977H157.861L157.794 34.4804C157.725 35.8014 157.413 36.8279 156.86 37.56Z" fill="#646363"/>
<path d="M162.821 35.1062C162.821 34.4559 162.947 33.8711 163.199 33.3517C163.455 32.8323 163.809 32.4315 164.261 32.1493C164.716 31.8671 165.235 31.726 165.816 31.726C166.715 31.726 167.441 32.0389 167.994 32.6646C168.551 33.2903 168.83 34.1226 168.83 35.1614V35.2411C168.83 35.8873 168.706 36.468 168.458 36.9833C168.214 37.4946 167.862 37.8933 167.402 38.1796C166.947 38.4659 166.422 38.609 165.828 38.609C164.934 38.609 164.208 38.2961 163.65 37.6704C163.097 37.0447 162.821 36.2165 162.821 35.1859V35.1062ZM163.956 35.2411C163.956 35.9773 164.124 36.5682 164.462 37.014C164.804 37.4598 165.259 37.6827 165.828 37.6827C166.402 37.6827 166.857 37.4578 167.195 37.0079C167.533 36.5539 167.701 35.92 167.701 35.1062C167.701 34.3782 167.529 33.7893 167.183 33.3394C166.841 32.8855 166.386 32.6585 165.816 32.6585C165.259 32.6585 164.81 32.8814 164.468 33.3271C164.126 33.7729 163.956 34.4109 163.956 35.2411Z" fill="#646363"/>
<path d="M178.17 38.4863V35.008H176.121L174.284 38.4863H173.034L175.096 34.6829C173.949 34.2289 173.375 33.4171 173.375 32.2475C173.375 31.3968 173.652 30.7363 174.205 30.266C174.762 29.7916 175.535 29.5544 176.523 29.5544H179.348V38.4863H178.17ZM174.547 32.2475C174.547 32.7873 174.713 33.2208 175.047 33.548C175.384 33.8752 175.852 34.0408 176.45 34.0449H178.17V30.5237H176.505C175.87 30.5237 175.384 30.675 175.047 30.9776C174.713 31.2803 174.547 31.7035 174.547 32.2475Z" fill="#646363"/>
<path d="M20.7416 22.7794H1.8834C1.63606 22.7794 1.39116 22.7304 1.16265 22.6353C0.934147 22.5401 0.726523 22.4006 0.551634 22.2247C0.376744 22.0489 0.238014 21.8401 0.143365 21.6103C0.0487155 21.3806 0 21.1343 0 20.8856L0 1.92311C0 1.42084 0.198429 0.939139 0.551634 0.583981C0.904839 0.228823 1.38389 0.0292969 1.8834 0.0292969H20.7416C21.2416 0.0292952 21.7211 0.228665 22.0751 0.583684C22.4291 0.938702 22.6286 1.42039 22.6299 1.92311V20.8856C22.6299 21.1347 22.581 21.3814 22.486 21.6115C22.3911 21.8416 22.2519 22.0505 22.0765 22.2265C21.9011 22.4024 21.6929 22.5418 21.4639 22.6367C21.2348 22.7315 20.9894 22.7801 20.7416 22.7794Z" fill="#525251"/>
<path d="M11.0095 4.06583C10.3834 4.06583 10.1309 4.30012 9.90765 4.89071L5.33993 16.8344C5.22411 17.1388 5.20877 17.4725 5.29619 17.7863C5.3836 18.1001 5.56913 18.3773 5.82534 18.5769C5.85446 18.6111 7.69417 20.4609 10.0096 22.7794H20.742C20.9898 22.78 21.2352 22.7315 21.4643 22.6366C21.6933 22.5418 21.9015 22.4024 22.0769 22.2264C22.2523 22.0505 22.3915 21.8415 22.4864 21.6114C22.5814 21.3814 22.6303 21.1347 22.6303 20.8856V14.6673C18.8441 10.8552 12.5628 4.28547 12.4949 4.23178C12.2133 3.86571 11.5678 4.01214 11.0921 4.01214" fill="#282727"/>
<path d="M4.89258 17.2102H6.276L8.13027 13.1005H14.0766L15.9308 17.2102H17.3191L11.8388 4.94928H10.4166L4.89258 17.2102ZM8.6351 11.9876L11.1301 6.37452L13.5911 11.9876H8.6351Z" fill="white"/>
<path d="M4.89287 17.2102V18.1864H6.27629C6.46387 18.187 6.64758 18.1329 6.80523 18.0307C6.96287 17.9285 7.08769 17.7825 7.16459 17.6105L8.73733 14.0767H13.4458L15.0477 17.6105C15.1242 17.7818 15.2483 17.9272 15.405 18.0293C15.5617 18.1315 15.7444 18.186 15.9311 18.1864H17.3194C17.4813 18.1861 17.6406 18.145 17.7827 18.067C17.9248 17.9889 18.0453 17.8764 18.1331 17.7396C18.2209 17.6028 18.2733 17.4461 18.2854 17.2837C18.2976 17.1214 18.2692 16.9585 18.2028 16.81L12.7274 4.54417C12.6498 4.37305 12.5247 4.22812 12.3671 4.12681C12.2095 4.0255 12.0261 3.97212 11.8391 3.9731H10.4168C10.2306 3.97306 10.0483 4.02688 9.8917 4.12814C9.73506 4.22939 9.61068 4.37381 9.5334 4.54417L4.00942 16.8051C3.94196 16.9538 3.91272 17.1172 3.92438 17.2803C3.93604 17.4433 3.98822 17.6008 4.07616 17.7383C4.16409 17.8758 4.28495 17.9888 4.42764 18.0671C4.57034 18.1454 4.73031 18.1865 4.89287 18.1864V17.2102L5.77632 17.6105L11.043 5.92548H11.2129L16.4457 17.6105L17.334 17.2102V16.234H16.5719L14.9749 12.6905C14.8959 12.5187 14.7689 12.3738 14.6095 12.2733C14.45 12.1728 14.265 12.121 14.0768 12.1243H8.13056C7.94488 12.1238 7.76295 12.1769 7.60637 12.2773C7.44978 12.3776 7.3251 12.521 7.24711 12.6905L5.65497 16.2292H4.89287V17.2054L5.77632 17.6056L4.89287 17.2054V17.2102ZM8.63539 11.9876L9.51884 12.3879L11.1255 8.78572L12.0964 11.0163H8.63539V11.9925L9.51884 12.3927L8.63539 11.9925V12.9687H13.5914C13.7525 12.9684 13.911 12.9279 14.0526 12.8507C14.1942 12.7735 14.3145 12.6621 14.4026 12.5266C14.4907 12.391 14.5439 12.2355 14.5574 12.0741C14.5709 11.9127 14.5442 11.7505 14.4797 11.602L12.0187 5.97917C11.9425 5.80622 11.818 5.65926 11.6603 5.55615C11.5026 5.45303 11.3185 5.39821 11.1304 5.39833C10.9428 5.39779 10.7591 5.45189 10.6015 5.5541C10.4438 5.65631 10.319 5.80226 10.2421 5.97429L7.7665 11.5923C7.70101 11.7409 7.67349 11.9037 7.68644 12.0658C7.69938 12.2278 7.75238 12.3841 7.84063 12.5203C7.92887 12.6566 8.04957 12.7685 8.19175 12.846C8.33393 12.9234 8.4931 12.9639 8.65481 12.9638V11.9876H8.63539Z" fill="white"/>
<path d="M47.4974 22.7794H28.6392C28.3915 22.7801 28.1461 22.7315 27.917 22.6367C27.6879 22.5418 27.4797 22.4024 27.3043 22.2265C27.1289 22.0505 26.9898 21.8416 26.8948 21.6115C26.7999 21.3814 26.751 21.1347 26.751 20.8856V1.92311C26.7523 1.42039 26.9518 0.938702 27.3057 0.583684C27.6597 0.228665 28.1393 0.0292952 28.6392 0.0292969H47.4974C47.9974 0.0292952 48.477 0.228665 48.8309 0.583684C49.1849 0.938702 49.3844 1.42039 49.3857 1.92311V20.8856C49.3857 21.1347 49.3368 21.3814 49.2419 21.6115C49.1469 21.8416 49.0078 22.0505 48.8323 22.2265C48.6569 22.4024 48.4487 22.5418 48.2197 22.6367C47.9906 22.7315 47.7452 22.7801 47.4974 22.7794Z" fill="#525251"/>
<path d="M37.4788 4.05607L36.9449 4.13905C36.5323 4.13905 32.0374 15.7948 32.0374 16.6294L31.4209 17.1565C31.4209 17.6446 31.9597 18.1327 32.3141 18.4305C34.0907 19.7719 35.7817 21.2244 37.3769 22.7794H47.522C47.7697 22.78 48.0152 22.7315 48.2442 22.6367C48.4733 22.5418 48.6815 22.4024 48.8569 22.2264C49.0323 22.0505 49.1715 21.8415 49.2664 21.6115C49.3614 21.3814 49.4102 21.1347 49.4102 20.8856V13.4324C45.7502 9.7619 41.4155 5.41786 41.3621 5.36905C40.9476 4.92088 40.4436 4.56574 39.8831 4.32687C39.3227 4.088 38.7184 3.97078 38.1099 3.98286" fill="#282727"/>
<path d="M38.4927 4.94441H37.3472L32.3086 17.2102H33.6386L37.9199 6.48679L42.1624 17.2102H43.4925L38.4927 4.94441Z" fill="white"/>
<path d="M38.4933 4.94929V3.9731H37.3429C37.1518 3.97366 36.9651 4.03093 36.8062 4.13772C36.6473 4.24452 36.5233 4.3961 36.4498 4.57346L31.4161 16.8344C31.3543 16.9828 31.33 17.1442 31.3452 17.3042C31.3605 17.4643 31.4148 17.6181 31.5034 17.752C31.5924 17.8861 31.713 17.9959 31.8544 18.0717C31.9959 18.1475 32.1538 18.1869 32.3141 18.1864H33.6392C33.8337 18.1866 34.0237 18.1281 34.1847 18.0185C34.3456 17.9088 34.4702 17.7531 34.5421 17.5714L37.94 9.11762L41.2602 17.5714C41.3318 17.7523 41.4556 17.9075 41.6156 18.0171C41.7756 18.1267 41.9646 18.1856 42.1582 18.1864H43.4931C43.6525 18.1861 43.8095 18.1463 43.95 18.0706C44.0906 17.9948 44.2104 17.8854 44.2989 17.752C44.3874 17.6191 44.4422 17.4664 44.4583 17.3072C44.4743 17.1481 44.4513 16.9874 44.3911 16.8393L39.3914 4.57834C39.3182 4.3993 39.1938 4.24617 39.0339 4.1384C38.874 4.03063 38.6858 3.9731 38.4933 3.9731V4.94929L37.5953 5.31536L42.5951 17.5714L43.4931 17.2005V16.2243H42.8232L38.8331 6.1256C38.7608 5.94505 38.6364 5.79038 38.4759 5.68145C38.3155 5.57253 38.1263 5.51433 37.9327 5.51433C37.7391 5.51433 37.5499 5.57253 37.3895 5.68145C37.229 5.79038 37.1046 5.94505 37.0323 6.1256L33.0082 16.2341H32.3141V17.2102L33.2072 17.5812L37.9934 5.92548H38.4788V4.94929L37.5808 5.31536L38.4788 4.94929H38.4933Z" fill="white"/>
<path d="M74.2679 22.7794H55.4C55.1522 22.7801 54.9068 22.7315 54.6777 22.6367C54.4487 22.5418 54.2405 22.4024 54.0651 22.2265C53.8897 22.0505 53.7505 21.8416 53.6555 21.6115C53.5606 21.3814 53.5117 21.1347 53.5117 20.8856V1.92311C53.513 1.42039 53.7125 0.938702 54.0665 0.583684C54.4205 0.228665 54.9 0.0292952 55.4 0.0292969H74.2679C74.5152 0.0292969 74.7601 0.0782817 74.9887 0.173455C75.2172 0.268627 75.4248 0.408124 75.5997 0.583981C75.7746 0.759837 75.9133 0.968609 76.0079 1.19838C76.1026 1.42814 76.1513 1.67441 76.1513 1.92311V20.8856C76.1513 21.1343 76.1026 21.3806 76.0079 21.6103C75.9133 21.8401 75.7746 22.0489 75.5997 22.2247C75.4248 22.4006 75.2172 22.5401 74.9887 22.6353C74.7601 22.7304 74.5152 22.7794 74.2679 22.7794Z" fill="#525251"/>
<path d="M65.3994 4.96881C63.516 4.96881 61.7297 5.29095 60.4094 6.73571C59.8121 7.34963 59.349 8.08227 59.0498 8.88665C58.7505 9.69104 58.6217 10.5494 58.6716 11.4068C58.6634 13.3464 59.3787 15.2186 60.6764 16.6538L66.7634 22.7794H74.2679C74.5152 22.7794 74.7601 22.7304 74.9886 22.6352C75.2171 22.5401 75.4247 22.4006 75.5996 22.2247C75.7745 22.0489 75.9132 21.8401 76.0079 21.6103C76.1025 21.3806 76.1513 21.1343 76.1513 20.8856V12.5489C73.2145 9.59595 70.5739 6.98464 70.535 6.94559C69.1319 5.70533 67.3399 5.00044 65.4722 4.95416" fill="#282727"/>
<path d="M64.4287 18.3573H65.6471V16.6245C68.7925 16.6245 71.0982 14.3549 71.0982 11.2848C71.0982 8.21464 68.7925 5.95964 65.6471 5.945V4.39285H64.4287V5.945C61.2784 5.945 58.9727 8.21464 58.9727 11.2848C58.9727 14.3549 61.2784 16.605 64.4287 16.6245V18.3573ZM64.4287 15.5068C63.8684 15.5336 63.3088 15.443 62.7851 15.2408C62.2615 15.0386 61.7854 14.7293 61.387 14.3323C60.9886 13.9354 60.6765 13.4595 60.4707 12.9349C60.2648 12.4102 60.1696 11.8483 60.191 11.2848C60.1696 10.7212 60.2648 10.1593 60.4707 9.63466C60.6765 9.11004 60.9886 8.63416 61.387 8.23721C61.7854 7.84025 62.2615 7.53087 62.7851 7.32869C63.3088 7.12651 63.8684 7.03595 64.4287 7.06273V15.5068ZM65.6471 7.06273C66.2085 7.03385 66.7698 7.12286 67.2951 7.3241C67.8205 7.52534 68.2984 7.83439 68.6984 8.23157C69.0984 8.62875 69.4118 9.10536 69.6185 9.63102C69.8253 10.1567 69.9209 10.7199 69.8993 11.2848C69.9207 11.8479 69.8256 12.4094 69.62 12.9337C69.4144 13.4579 69.1028 13.9336 68.7049 14.3304C68.307 14.7273 67.8315 15.0368 67.3085 15.2393C66.7855 15.4418 66.2263 15.5329 65.6665 15.5068V7.06273H65.6471Z" fill="white"/>
<path d="M64.4284 18.3573V19.3335H65.6468C65.9043 19.3335 66.1512 19.2306 66.3333 19.0475C66.5153 18.8645 66.6176 18.6162 66.6176 18.3573V16.6245H65.6468V17.6007C67.3472 17.6203 68.9886 16.9745 70.2242 15.7996C70.818 15.2109 71.2871 14.5073 71.6032 13.7314C71.9194 12.9555 72.0761 12.1232 72.0639 11.2848C72.0761 10.4463 71.9194 9.61408 71.6032 8.83815C71.2871 8.06223 70.818 7.35868 70.2242 6.76989C68.9886 5.59506 67.3472 4.94922 65.6468 4.96881V5.94501H66.6176V4.39286C66.6165 4.13438 66.5135 3.88688 66.3312 3.70465C66.15 3.52133 65.9038 3.41776 65.6468 3.41667H64.4284C64.1709 3.41667 63.924 3.51952 63.7419 3.70259C63.5599 3.88566 63.4576 4.13396 63.4576 4.39286V5.94501H64.4284V4.96881C62.7265 4.94898 61.0835 5.59476 59.8461 6.76989C59.2533 7.35936 58.7848 8.06303 58.4687 8.8388C58.1525 9.61456 57.9953 10.4465 58.0064 11.2848C57.9953 12.1231 58.1525 12.955 58.4687 13.7307C58.7848 14.5065 59.2533 15.2102 59.8461 15.7996C61.0835 16.9748 62.7265 17.6206 64.4284 17.6007V16.6245H63.4576V18.3573C63.4576 18.6162 63.5599 18.8645 63.7419 19.0475C63.924 19.2306 64.1709 19.3335 64.4284 19.3335V18.3573H65.3992V16.6245C65.3992 16.3656 65.2969 16.1173 65.1149 15.9343C64.9328 15.7512 64.6859 15.6483 64.4284 15.6483C63.2284 15.6723 62.0666 15.224 61.1907 14.3988C60.7837 13.9917 60.4629 13.5058 60.2477 12.9706C60.0324 12.4354 59.9272 11.862 59.9383 11.2848C59.9272 10.7076 60.0324 10.1341 60.2477 9.5989C60.4629 9.06371 60.7837 8.57788 61.1907 8.17072C62.0666 7.34558 63.2284 6.8972 64.4284 6.9212C64.6859 6.9212 64.9328 6.81835 65.1149 6.63528C65.2969 6.4522 65.3992 6.20391 65.3992 5.94501V5.36905H65.6468V4.39286H64.676V5.94501C64.676 6.20391 64.7782 6.4522 64.9603 6.63528C65.1424 6.81835 65.3893 6.9212 65.6468 6.9212C66.8456 6.89587 68.0063 7.34453 68.8796 8.17072C69.2875 8.5772 69.6089 9.0629 69.8242 9.59826C70.0395 10.1336 70.1442 10.7074 70.132 11.2848C70.1442 11.8621 70.0395 12.4359 69.8242 12.9713C69.6089 13.5066 69.2875 13.9923 68.8796 14.3988C68.0063 15.225 66.8456 15.6737 65.6468 15.6483C65.3893 15.6483 65.1424 15.7512 64.9603 15.9343C64.7782 16.1173 64.676 16.3656 64.676 16.6245V17.3811H64.4284V18.3573ZM64.4284 15.5068V14.5306H64.4041C63.9651 14.5475 63.5275 14.4726 63.1188 14.3104C62.7102 14.1482 62.3396 13.9024 62.0305 13.5886C61.458 12.9609 61.147 12.1363 61.1616 11.2848C61.1444 10.4346 61.4518 9.61012 62.0208 8.98096C62.3299 8.66712 62.7005 8.42131 63.1091 8.25915C63.5178 8.09698 63.9554 8.02199 64.3944 8.03893H64.4187V7.06274H63.4479V15.5068H64.4187V14.5306V15.5068H65.3895V7.06274C65.3895 6.80384 65.2872 6.55554 65.1052 6.37247C64.9231 6.1894 64.6762 6.08655 64.4187 6.08655H64.3799C63.6777 6.06936 62.9795 6.19789 62.3289 6.4641C61.6783 6.73031 61.0892 7.1285 60.5985 7.63381C59.6919 8.62898 59.1987 9.93537 59.2199 11.2848C59.2026 12.6362 59.7012 13.9428 60.6131 14.9357C61.1045 15.4401 61.6937 15.8377 62.3441 16.1038C62.9945 16.3699 63.6924 16.499 64.3944 16.483H64.4333C64.6907 16.483 64.9377 16.3801 65.1197 16.1971C65.3018 16.014 65.4041 15.7657 65.4041 15.5068H64.4284ZM65.6468 7.06274V8.03893H65.6759C66.1141 8.02207 66.5511 8.09712 66.9589 8.2593C67.3667 8.42149 67.7365 8.66725 68.0447 8.98096C68.6242 9.60526 68.9408 10.4309 68.9282 11.2848C68.9474 12.1353 68.6396 12.9605 68.069 13.5886C67.7608 13.9023 67.391 14.148 66.9832 14.3102C66.5753 14.4724 66.1384 14.5475 65.7002 14.5306H65.671V15.5068H66.6419V7.06274H65.671H64.7002V15.5068C64.7002 15.7657 64.8025 16.014 64.9846 16.1971C65.1666 16.3801 65.4136 16.483 65.671 16.483H65.7147C66.416 16.4986 67.113 16.3694 67.7626 16.1032C68.4122 15.8371 69.0005 15.4397 69.4912 14.9357C70.3999 13.9419 70.8936 12.6346 70.8698 11.2848C70.8896 9.93292 70.3907 8.62538 69.4767 7.63381C68.9867 7.12887 68.3984 6.73088 67.7487 6.46467C67.0989 6.19846 66.4016 6.06975 65.7002 6.08655H65.6565C65.399 6.08655 65.1521 6.1894 64.97 6.37247C64.7879 6.55554 64.6857 6.80384 64.6857 7.06274H65.6468Z" fill="white"/>
<path d="M101.014 22.7794H82.1559C81.9084 22.7801 81.6632 22.7315 81.4344 22.6366C81.2056 22.5416 80.9977 22.4021 80.8227 22.2262C80.6477 22.0502 80.509 21.8412 80.4145 21.6111C80.3201 21.381 80.2718 21.1345 80.2725 20.8856V1.9231C80.2725 1.42083 80.4709 0.939134 80.8241 0.583975C81.1773 0.228817 81.6564 0.0292915 82.1559 0.0292915H101.014C101.262 0.0280053 101.508 0.0760409 101.738 0.170638C101.967 0.265235 102.176 0.404528 102.352 0.580512C102.528 0.756497 102.668 0.965703 102.763 1.19611C102.858 1.42652 102.907 1.67358 102.907 1.9231V20.8856C102.907 21.1343 102.858 21.3806 102.764 21.6103C102.669 21.8401 102.53 22.0489 102.356 22.2247C102.181 22.4006 101.973 22.5401 101.745 22.6353C101.516 22.7304 101.271 22.7794 101.024 22.7794H101.014Z" fill="#525251"/>
<path d="M90.9222 4.35868L90.7183 4.24642C89.8834 4.24642 89.6892 4.59297 89.3494 5.43249L85.5195 17.3762C85.5191 17.607 85.5714 17.8349 85.6724 18.0422C85.7734 18.2496 85.9204 18.4308 86.102 18.572C86.1312 18.6062 87.9806 20.4756 90.2717 22.7794H101.014C101.262 22.7807 101.508 22.7327 101.738 22.6381C101.967 22.5435 102.176 22.4042 102.352 22.2282C102.528 22.0522 102.667 21.843 102.763 21.6126C102.858 21.3822 102.907 21.1351 102.907 20.8856V13.5934C99.4411 10.1036 94.5627 5.32999 94.5142 5.29583C93.155 3.86082 92.6793 3.98285 90.563 3.98285" fill="#282727"/>
<path d="M85.2822 17.2102H86.6025L88.3452 13.1005H94.0196L95.7817 17.2102H97.102L91.8935 4.94928H90.5441L85.2822 17.2102ZM88.8306 11.9876L91.2042 6.37452L93.5439 11.9876H88.8306Z" fill="white"/>
<path d="M85.2822 18.1864H86.6026C86.7917 18.1857 86.9766 18.1295 87.1344 18.0245C87.2922 17.9196 87.4161 17.7706 87.4909 17.5958L89.0053 14.0767H93.374L94.8885 17.5958C94.9632 17.7706 95.0871 17.9196 95.245 18.0245C95.4028 18.1295 95.5876 18.1857 95.7768 18.1864H97.0971C97.258 18.1866 97.4164 18.1467 97.5581 18.0701C97.6998 17.9935 97.8203 17.8827 97.9089 17.7477C97.9974 17.6126 98.0512 17.4576 98.0654 17.2965C98.0797 17.1354 98.0538 16.9732 97.9903 16.8246L92.7867 4.56368C92.7116 4.38815 92.587 4.23863 92.4282 4.13365C92.2695 4.02866 92.0835 3.97284 91.8935 3.97309H90.5441C90.3546 3.97243 90.1691 4.02753 90.0104 4.13161C89.8517 4.23568 89.7267 4.38418 89.6509 4.5588L84.3891 16.8198C84.3384 16.9377 84.3113 17.0645 84.3094 17.193C84.3074 17.3214 84.3307 17.449 84.3778 17.5685C84.4249 17.6879 84.4949 17.7968 84.5839 17.889C84.6729 17.9812 84.779 18.0549 84.8963 18.1059C85.1332 18.2088 85.401 18.2129 85.6409 18.1172C85.7597 18.0699 85.868 17.9994 85.9597 17.91C86.0514 17.8205 86.1247 17.7138 86.1754 17.5958L91.18 5.92547H91.2576L96.2331 17.5958L97.1263 17.2102V16.234H96.4467L94.9322 12.7149C94.8575 12.5401 94.7336 12.3911 94.5758 12.2862C94.418 12.1813 94.2331 12.125 94.0439 12.1243H88.3452C88.156 12.125 87.9711 12.1813 87.8133 12.2862C87.6555 12.3911 87.5316 12.5401 87.4569 12.7149L85.9424 16.234H85.2628C85.0053 16.234 84.7584 16.3369 84.5763 16.52C84.3943 16.703 84.292 16.9513 84.292 17.2102C84.292 17.4691 84.3943 17.7174 84.5763 17.9005C84.7584 18.0836 85.0053 18.1864 85.2628 18.1864H85.2822ZM88.8306 11.9876L89.7237 12.3732L91.18 8.88333L92.0683 11.0114H88.8306V11.9876L89.7237 12.3732L88.8306 11.9876V12.9638H93.5439C93.704 12.9641 93.8616 12.9247 94.0028 12.849C94.144 12.7732 94.2644 12.6636 94.3533 12.5298C94.4422 12.396 94.4968 12.2421 94.5122 12.082C94.5277 11.9218 94.5035 11.7603 94.4419 11.6118L92.0974 5.9938C92.0228 5.81771 91.8984 5.66755 91.7396 5.56201C91.5808 5.45647 91.3946 5.4002 91.2042 5.4002C91.0139 5.4002 90.8277 5.45647 90.6689 5.56201C90.5101 5.66755 90.3857 5.81771 90.3111 5.9938L87.9374 11.6118C87.8741 11.7604 87.8486 11.9225 87.863 12.0835C87.8774 12.2445 87.9313 12.3994 88.02 12.5343C88.1089 12.6684 88.2295 12.7782 88.3709 12.854C88.5124 12.9298 88.6703 12.9692 88.8306 12.9687V11.9925V11.9876Z" fill="white"/>
<path d="M127.77 22.755H108.912C108.412 22.7537 107.933 22.5531 107.58 22.1972C107.227 21.8412 107.028 21.359 107.028 20.8563V1.89381C107.028 1.39154 107.227 0.909842 107.58 0.554684C107.933 0.199526 108.412 0 108.912 0L127.77 0C128.269 0 128.749 0.199526 129.102 0.554684C129.455 0.909842 129.653 1.39154 129.653 1.89381V20.8563C129.654 21.1054 129.606 21.3522 129.511 21.5825C129.417 21.8129 129.278 22.0222 129.103 22.1986C128.928 22.375 128.721 22.5149 128.492 22.6104C128.263 22.7059 128.018 22.755 127.77 22.755Z" fill="#525251"/>
<path d="M116.931 4.04143H114.441C113.606 4.04143 113.349 4.56857 113.349 5.40322V17.3518C113.349 17.8399 113.436 17.957 113.931 18.5427C113.931 18.5818 115.465 20.4463 117.756 22.755H127.77C128.018 22.755 128.263 22.7059 128.492 22.6104C128.721 22.5149 128.929 22.375 129.104 22.1986C129.279 22.0222 129.417 21.8129 129.512 21.5825C129.606 21.3522 129.654 21.1054 129.654 20.8563V10.7869C127.735 8.85948 125.655 7.10231 123.435 5.535C121.29 3.95846 118.979 4.07072 118.237 4.01215L116.931 4.04143Z" fill="#282727"/>
<path d="M114.246 17.2102H117.469C121.319 17.2102 121.717 14.7063 121.717 13.7448C121.717 12.4708 121.129 11.0798 119.663 10.6307C120.092 10.3856 120.45 10.0308 120.698 9.60219C120.947 9.17363 121.079 8.68653 121.081 8.19024C121.081 5.10547 118.406 4.95905 117.197 4.95905H114.256V17.2102H114.246ZM115.421 16.1071V11.3092H117.469C118.629 11.3092 120.522 11.5239 120.522 13.7496C120.522 15.8875 118.581 16.0827 117.469 16.0827L115.421 16.1071ZM115.421 10.211V6.05726H117.188C118.047 6.05726 119.911 6.10607 119.911 8.12678C119.911 10.0157 118.173 10.2012 117.188 10.2012L115.421 10.211Z" fill="white"/>
<path d="M114.246 17.2102V18.1864H117.469C118.383 18.2082 119.291 18.0421 120.139 17.6983C120.641 17.4899 121.098 17.1848 121.484 16.8002C121.948 16.3341 122.293 15.7612 122.488 15.131C122.623 14.6847 122.692 14.2209 122.692 13.7545C122.702 12.9263 122.49 12.1107 122.081 11.3921C121.614 10.577 120.852 9.97395 119.955 9.70822L119.668 10.6405L120.192 11.4654C120.668 11.1683 121.08 10.7802 121.406 10.3232C121.838 9.69746 122.065 8.95192 122.056 8.19024C122.082 7.3738 121.882 6.56618 121.479 5.85715C121.217 5.42007 120.862 5.04668 120.44 4.76382C119.897 4.40865 119.285 4.17403 118.644 4.0756C118.163 3.99462 117.676 3.95705 117.188 3.96334H114.246C113.989 3.96334 113.742 4.06619 113.56 4.24926C113.378 4.43233 113.275 4.68063 113.275 4.93953V17.2102C113.275 17.4691 113.378 17.7174 113.56 17.9005C113.742 18.0836 113.989 18.1864 114.246 18.1864V17.2102H115.217V5.92548H117.188C117.512 5.92076 117.837 5.94034 118.159 5.98405C118.654 6.03332 119.125 6.22288 119.518 6.53072C119.696 6.68931 119.834 6.88845 119.921 7.11155C120.049 7.45281 120.11 7.81584 120.1 8.18048C120.11 8.54103 120.005 8.8953 119.799 9.19084C119.621 9.43854 119.395 9.64768 119.134 9.80584C118.978 9.90605 118.853 10.0493 118.775 10.2186C118.697 10.3878 118.669 10.5761 118.694 10.761C118.719 10.9459 118.796 11.1197 118.916 11.2619C119.036 11.404 119.195 11.5085 119.372 11.563C119.805 11.6892 120.172 11.9798 120.396 12.3732C120.628 12.7924 120.745 13.2655 120.736 13.7448C120.735 13.9801 120.706 14.2145 120.649 14.4427C120.593 14.6537 120.508 14.8557 120.396 15.0431C120.186 15.385 119.883 15.6594 119.523 15.8338C118.875 16.1271 118.169 16.2642 117.46 16.2341H114.232V17.2102H114.246ZM115.421 16.1072H116.392V12.2854H117.469C117.742 12.2832 118.015 12.3028 118.285 12.3439C118.621 12.3799 118.941 12.5101 119.207 12.7198C119.31 12.8177 119.39 12.9378 119.44 13.0712C119.521 13.2928 119.559 13.5282 119.552 13.7643C119.567 14.0229 119.508 14.2804 119.382 14.5062C119.31 14.6175 119.216 14.7123 119.105 14.7844C118.877 14.9201 118.625 15.0112 118.362 15.0529C118.068 15.1048 117.769 15.131 117.469 15.131H115.416V16.1072V17.0833H117.469C118.287 17.1057 119.099 16.9387 119.843 16.5952C120.324 16.3584 120.732 15.9939 121.023 15.541C121.352 15.0048 121.52 14.3846 121.508 13.7545C121.526 13.1166 121.372 12.4858 121.061 11.9291C120.851 11.5724 120.568 11.2646 120.231 11.0261C119.793 10.7273 119.297 10.5245 118.775 10.4306C118.354 10.3557 117.926 10.3198 117.498 10.3232H115.445C115.188 10.3243 114.942 10.4279 114.761 10.6112C114.578 10.7934 114.475 11.0409 114.474 11.2994V16.1072C114.474 16.236 114.5 16.3635 114.549 16.4825C114.598 16.6014 114.67 16.7094 114.761 16.8002C114.943 16.9818 115.189 17.0835 115.445 17.0833V16.1072H115.421ZM115.421 10.211H116.392V7.03346H117.188C117.412 7.03084 117.635 7.04225 117.858 7.06763C118.023 7.08289 118.186 7.11729 118.343 7.17013C118.511 7.21758 118.662 7.31445 118.775 7.44834C118.909 7.64784 118.97 7.88722 118.95 8.12679C118.962 8.33578 118.914 8.54387 118.814 8.72715C118.758 8.81111 118.685 8.88255 118.6 8.93703C118.41 9.05235 118.199 9.12866 117.979 9.16155C117.721 9.20622 117.459 9.22745 117.198 9.22501H115.431V10.2012V11.1774H117.198C117.943 11.2017 118.684 11.0531 119.362 10.743C119.809 10.5243 120.186 10.1867 120.455 9.76679C120.752 9.27098 120.903 8.70069 120.891 8.12191C120.9 7.51692 120.731 6.92283 120.406 6.41358C120.193 6.08606 119.909 5.81084 119.576 5.60822C119.162 5.35499 118.701 5.18893 118.222 5.12012C117.876 5.07446 117.527 5.05326 117.178 5.05667H115.411C115.154 5.05776 114.908 5.16133 114.727 5.34465C114.544 5.52688 114.441 5.77438 114.44 6.03286V10.2012C114.44 10.4601 114.543 10.7084 114.725 10.8915C114.907 11.0745 115.154 11.1774 115.411 11.1774V10.2012L115.421 10.211Z" fill="white"/>
<path d="M154.545 22.7794H135.687C135.44 22.7794 135.195 22.7304 134.966 22.6353C134.738 22.5401 134.53 22.4006 134.355 22.2247C134.18 22.0489 134.042 21.8401 133.947 21.6103C133.852 21.3806 133.804 21.1343 133.804 20.8856V1.92311C133.804 1.42084 134.002 0.939139 134.355 0.583981C134.709 0.228823 135.188 0.0292969 135.687 0.0292969H154.545C155.045 0.0292952 155.525 0.228665 155.879 0.583684C156.233 0.938702 156.432 1.42039 156.434 1.92311V20.8856C156.434 21.1347 156.385 21.3814 156.29 21.6115C156.195 21.8416 156.056 22.0505 155.88 22.2265C155.705 22.4024 155.497 22.5418 155.268 22.6367C155.039 22.7315 154.793 22.7801 154.545 22.7794Z" fill="#525251"/>
<path d="M148.866 4.26108H141.1C140.265 4.26108 139.774 4.93953 139.774 5.77906V17.3762C139.774 17.6071 139.826 17.8349 139.927 18.0423C140.028 18.2496 140.175 18.4308 140.357 18.572C140.386 18.6062 142.235 20.4756 144.527 22.7794H154.541C154.788 22.7801 155.034 22.7315 155.263 22.6367C155.492 22.5418 155.7 22.4024 155.876 22.2265C156.051 22.0505 156.19 21.8416 156.285 21.6115C156.38 21.3814 156.429 21.1347 156.429 20.8856V10.8162C153.274 7.64358 150.657 4.63203 150.604 4.59299C150.327 4.23668 149.42 4.26108 148.934 4.26108" fill="#282727"/>
<path d="M140.356 5.22261V17.4836H141.623L148.764 6.96511V17.4836H149.968V5.22261H148.701L141.56 15.7459V5.22261H140.356Z" fill="white"/>
<path d="M140.357 5.22262H139.386V17.4836C139.386 17.7425 139.488 17.9908 139.67 18.1738C139.852 18.3569 140.099 18.4598 140.357 18.4598H141.623C141.781 18.4597 141.937 18.4211 142.076 18.3471C142.216 18.2731 142.335 18.166 142.424 18.0351L147.793 10.128V17.4836C147.793 17.7425 147.895 17.9908 148.077 18.1738C148.259 18.3569 148.506 18.4598 148.764 18.4598H149.992C150.249 18.4598 150.496 18.3569 150.678 18.1738C150.861 17.9908 150.963 17.7425 150.963 17.4836V5.22262C150.963 4.96372 150.861 4.71542 150.678 4.53235C150.496 4.34928 150.249 4.24643 149.992 4.24643H148.725C148.567 4.24644 148.412 4.28512 148.272 4.35911C148.133 4.4331 148.013 4.54018 147.924 4.67107L142.526 12.5831V5.22262C142.526 4.96372 142.424 4.71542 142.242 4.53235C142.06 4.34928 141.813 4.24643 141.556 4.24643H140.357C140.1 4.24752 139.853 4.35108 139.672 4.53441C139.49 4.71664 139.387 4.96414 139.386 5.22262H140.357V6.19881H140.585V15.746C140.583 15.9558 140.649 16.1605 140.772 16.3298C140.895 16.4991 141.07 16.6239 141.269 16.6858C141.468 16.7477 141.682 16.7434 141.879 16.6734C142.076 16.6035 142.245 16.4717 142.361 16.2975L149.21 6.19881H149.992V5.22262H149.021V16.5074H148.788V17.4836H149.759V6.96512C149.759 6.75667 149.693 6.5537 149.57 6.38592C149.447 6.21814 149.273 6.09437 149.075 6.03273C148.877 5.97108 148.665 5.97479 148.469 6.04332C148.273 6.11185 148.104 6.2416 147.987 6.41357L141.109 16.5074H140.357V17.4836H141.327V5.22262H140.357Z" fill="white"/>
<path d="M181.301 22.7794H162.448C161.948 22.7794 161.468 22.58 161.114 22.225C160.76 21.87 160.561 21.3883 160.56 20.8856V1.92311C160.561 1.42039 160.76 0.938702 161.114 0.583684C161.468 0.228665 161.948 0.0292952 162.448 0.0292969H181.301C181.801 0.0292952 182.281 0.228665 182.635 0.583684C182.989 0.938702 183.188 1.42039 183.189 1.92311V20.8856C183.188 21.3883 182.989 21.87 182.635 22.225C182.281 22.58 181.801 22.7794 181.301 22.7794Z" fill="#525251"/>
<path d="M168.982 3.90477C168.147 3.90477 167.69 4.51001 167.69 5.34465C167.69 5.83275 167.69 6.32084 168.054 6.61858C168.127 6.7162 170.263 9.78144 170.36 9.85465C170.457 9.92787 170.287 9.92298 170.384 10.0011V17.3664C170.385 17.5965 170.437 17.8234 170.538 18.0298C170.639 18.2362 170.786 18.4167 170.967 18.5574C170.996 18.5964 172.845 20.461 175.137 22.7697H181.321C181.822 22.7697 182.302 22.5696 182.656 22.2135C183.01 21.8575 183.209 21.3745 183.209 20.871V10.6698C180.102 7.54596 177.088 4.51977 177.039 4.4856C176.543 4.04459 175.895 3.81526 175.234 3.8462" fill="#282727"/>
<path d="M171.204 17.0687H172.364V5.9206H175.019V4.80774H168.554V5.9206H171.204V17.0687Z" fill="white"/>
<path d="M171.204 17.0833V18.0595H172.364C172.622 18.0595 172.869 17.9567 173.051 17.7736C173.233 17.5905 173.335 17.3422 173.335 17.0833V6.89678H175.019C175.277 6.89678 175.524 6.79393 175.706 6.61086C175.888 6.42779 175.99 6.17949 175.99 5.92059V4.80773C175.99 4.54883 175.888 4.30053 175.706 4.11746C175.524 3.93439 175.277 3.83154 175.019 3.83154H168.554C168.426 3.83144 168.299 3.85683 168.181 3.90626C168.062 3.95568 167.955 4.02816 167.865 4.11952C167.684 4.30255 167.583 4.54995 167.583 4.80773V5.92059C167.583 6.17838 167.684 6.42578 167.865 6.60881C167.955 6.70016 168.062 6.77264 168.181 6.82207C168.299 6.87149 168.426 6.89688 168.554 6.89678H170.233V17.0833C170.233 17.3422 170.336 17.5905 170.518 17.7736C170.7 17.9567 170.947 18.0595 171.204 18.0595V17.0833H172.175V5.92059C172.175 5.66169 172.073 5.41339 171.891 5.23032C171.709 5.04725 171.462 4.9444 171.204 4.9444H169.525V4.80773H168.554V5.78392H174.049V5.92059H175.019V4.9444H172.364C172.107 4.9444 171.86 5.04725 171.678 5.23032C171.496 5.41339 171.393 5.66169 171.393 5.92059V16.1071H171.204V17.0833Z" fill="white"/>
</g>
<defs>
<clipPath id="clip0_289_464">
<rect width="183" height="41" fill="white"/>
</clipPath>
</defs>
</svg>
