<svg width="156" height="50" viewBox="0 0 156 50" fill="none" xmlns="http://www.w3.org/2000/svg">
<path d="M11.1865 2.24951C8.12163 3.88804 4.99624 5.52101 2.38258 8.26484C-0.0495054 10.7698 -0.682287 15.0411 0.781365 18.2626C2.3545 21.399 4.3959 24.2727 6.83406 26.783C5.19943 18.3434 6.75202 9.59193 11.1865 2.24951V2.24951Z" fill="#37A58C"/>
<path d="M8.63885 28.4157C11.6487 30.3431 14.6585 32.2149 18.1581 33.0314C21.9768 33.9089 25.5094 32.3315 27.7654 29.2322C29.5221 26.3081 30.8945 23.1658 31.8482 19.8843C25.4275 25.5349 17.1557 28.5755 8.63885 28.4157V28.4157Z" fill="#DD0060"/>
<path d="M31.2649 4.87673C30.5353 3.52815 29.4891 2.38087 28.2179 1.53547C26.9468 0.69007 25.4896 0.172385 23.9742 0.0278076C20.5472 -0.104546 17.1188 0.248816 13.7891 1.07757C21.311 3.54925 28.8438 9.84229 32.657 17.1462C32.8276 12.9416 33.0147 8.4426 31.2649 4.87673Z" fill="#505050"/>
<path d="M155.4 46.6844C155.857 45.4175 156.056 44.0704 155.983 42.7241V17.1743H147.317V42.5242C147.321 42.7649 147.277 43.004 147.189 43.2278C147.102 43.4515 146.971 43.6557 146.805 43.8284C146.639 44.0012 146.441 44.1393 146.222 44.2348C146.003 44.3303 145.767 44.3813 145.529 44.3849H145.342C144.871 44.417 144.406 44.2598 144.05 43.9477C143.693 43.6356 143.473 43.1937 143.438 42.7186V17.1687H134.81V42.7186C134.727 44.0644 134.914 45.4134 135.36 46.6844C135.714 47.4445 136.229 48.1168 136.869 48.6534C137.509 49.19 138.258 49.5778 139.063 49.7892C139.838 49.9357 140.625 50.0027 141.413 49.9892H149.331C150.122 50.0043 150.913 49.941 151.692 49.8003C152.5 49.5902 153.251 49.2017 153.893 48.6629C154.534 48.1241 155.049 47.4483 155.4 46.6844V46.6844Z" fill="#1C1C1C"/>
<path d="M114.539 17.1575C111.738 17.1575 109.785 19.6014 109.807 22.5229V49.9891H118.611V36.3532H122.198V49.9891H130.958V17.1575H114.539ZM122.187 30.7211H118.616V24.0559C118.616 22.8395 119.068 22.3896 120.163 22.3896H122.187V30.7211Z" fill="#1C1C1C"/>
<path d="M97.1127 17.1575V30.7211H93.261V17.1575H84.4186V49.9891H93.2775V36.3532H97.0742V49.9891H105.944V17.1575H97.1127Z" fill="#1C1C1C"/>
<path d="M74.5912 23.5116H80.5998V17.1575H65.7102V49.9891H80.6108V43.6294H74.5581V36.3532H79.6919V30.7211H74.5581L74.5912 23.5116Z" fill="#1C1C1C"/>
<path d="M57.4566 33.3611C58.6794 33.1328 59.7861 32.484 60.5886 31.5251C61.3911 30.5662 61.8399 29.3563 61.8585 28.1012V22.5469C61.809 19.5753 59.6576 17.1814 57.3135 17.1814H40.553V49.9908H49.2854V36.3549H51.4864C52.5869 36.3549 53.0216 36.8715 53.0216 38.0601V49.9908H61.8585V38.6988C61.8585 35.7995 59.542 33.6055 57.4566 33.3611ZM52.9831 29.101C53.0161 30.0896 52.6034 30.6784 51.8826 30.7673H49.2744V22.4358H51.4754C52.5759 22.4358 53.0271 22.9912 53.0106 24.1021L52.9831 29.101Z" fill="#1C1C1C"/>
</svg>
