<svg width="30" height="25" viewBox="0 0 30 25" fill="none" xmlns="http://www.w3.org/2000/svg">
<path d="M4.3934 25C2.29562 22.9519 0.867005 20.3425 0.288227 17.5017C-0.290551 14.6609 0.00649937 11.7164 1.14181 9.04039C2.27713 6.36443 4.19972 4.07724 6.66645 2.46807C9.13319 0.858893 12.0333 -5.40969e-07 15 0C17.9667 5.4097e-07 20.8668 0.858895 23.3336 2.46807C25.8003 4.07725 27.7229 6.36443 28.8582 9.04039C29.9935 11.7164 30.2906 14.6609 29.7118 17.5017C29.133 20.3425 27.7044 22.9519 25.6066 25L20.3033 19.8223C21.3522 18.7983 22.0665 17.4936 22.3559 16.0732C22.6453 14.6528 22.4968 13.1805 21.9291 11.8425C21.3614 10.5045 20.4001 9.36095 19.1668 8.55637C17.9334 7.75178 16.4834 7.32233 15 7.32233C13.5166 7.32233 12.0666 7.75177 10.8332 8.55636C9.59986 9.36095 8.63856 10.5045 8.07091 11.8425C7.50325 13.1805 7.35472 14.6528 7.64411 16.0732C7.9335 17.4936 8.64781 18.7983 9.6967 19.8223L4.3934 25Z" fill="#111111"/>
</svg>
