<svg width="64" height="70" viewBox="0 0 64 70" fill="none" xmlns="http://www.w3.org/2000/svg">
<path d="M57.7441 0H10.6061C9.04388 0.00173695 7.54618 0.616876 6.44154 1.71046C5.33691 2.80405 4.71556 4.28677 4.7138 5.83333V58.3333H1.17845C0.865906 58.3333 0.566163 58.4562 0.345161 58.675C0.124158 58.8938 0 59.1906 0 59.5V64.1667C0.0017545 65.7132 0.623107 67.196 1.72774 68.2895C2.83237 69.3831 4.33007 69.9983 5.89226 70H48.3165C49.8787 69.9983 51.3764 69.3831 52.481 68.2895C53.5856 67.196 54.207 65.7132 54.2088 64.1667V11.6667H62.4579C62.7705 11.6667 63.0702 11.5437 63.2912 11.325C63.5122 11.1062 63.6364 10.8094 63.6364 10.5V5.83333C63.6346 4.28677 63.0133 2.80405 61.9086 1.71046C60.804 0.616876 59.3063 0.00173695 57.7441 0ZM5.89226 67.6667C4.95495 67.6656 4.05633 67.2965 3.39355 66.6404C2.73077 65.9842 2.35795 65.0946 2.3569 64.1667V60.6667H42.4242V64.1667C42.4228 65.4295 42.8376 66.6583 43.6055 67.6667H5.89226ZM51.8519 64.1667C51.8519 65.0949 51.4794 65.9852 50.8164 66.6415C50.1534 67.2979 49.2541 67.6667 48.3165 67.6667C47.3789 67.6667 46.4796 67.2979 45.8166 66.6415C45.1536 65.9852 44.7811 65.0949 44.7811 64.1667V59.5C44.7811 59.1906 44.657 58.8938 44.436 58.675C44.215 58.4562 43.9152 58.3333 43.6027 58.3333H7.07071V5.83333C7.07176 4.9054 7.44457 4.01576 8.10735 3.35961C8.77013 2.70346 9.66875 2.33438 10.6061 2.33333H53.0335C52.2654 3.3416 51.8505 4.57044 51.8519 5.83333V64.1667ZM61.2795 9.33333H54.2088V5.83333C54.2088 4.90508 54.5812 4.01484 55.2442 3.35846C55.9072 2.70208 56.8065 2.33333 57.7441 2.33333C58.6817 2.33333 59.581 2.70208 60.244 3.35846C60.907 4.01484 61.2795 4.90508 61.2795 5.83333V9.33333Z" fill="#37A58C"/>
<path d="M29.0715 25.6667C30.2369 25.6667 31.3761 25.3246 32.3451 24.6836C33.3141 24.0426 34.0693 23.1316 34.5153 22.0657C34.9612 20.9998 35.0779 19.8269 34.8506 18.6953C34.6232 17.5638 34.062 16.5244 33.238 15.7085C32.4139 14.8927 31.364 14.3372 30.221 14.1121C29.0781 13.887 27.8933 14.0025 26.8166 14.444C25.74 14.8856 24.8197 15.6332 24.1723 16.5925C23.5248 17.5518 23.1793 18.6796 23.1793 19.8333C23.181 21.3799 23.8024 22.8626 24.907 23.9562C26.0116 25.0498 27.5093 25.6649 29.0715 25.6667ZM29.0715 16.3333C29.7707 16.3333 30.4543 16.5386 31.0357 16.9232C31.617 17.3078 32.0702 17.8544 32.3378 18.4939C32.6053 19.1335 32.6754 19.8372 32.5389 20.5162C32.4025 21.1951 32.0658 21.8187 31.5714 22.3082C31.077 22.7977 30.447 23.131 29.7612 23.2661C29.0754 23.4011 28.3646 23.3318 27.7186 23.0669C27.0726 22.802 26.5204 22.3534 26.132 21.7778C25.7435 21.2023 25.5362 20.5256 25.5362 19.8333C25.5372 18.9054 25.91 18.0158 26.5728 17.3596C27.2356 16.7035 28.1342 16.3344 29.0715 16.3333Z" fill="#DD0060"/>
<path d="M40.6984 33.975C39.7481 33.0393 38.9948 31.9263 38.4819 30.7004C37.969 29.4746 37.7068 28.1602 37.7104 26.8334C37.7101 26.7444 37.6996 26.6558 37.679 26.5693C37.7832 26.4638 37.8796 26.351 37.9673 26.2318C38.2838 25.8066 38.4786 25.3049 38.5313 24.7793C38.584 24.2538 38.4926 23.7239 38.2666 23.2454C38.2002 23.0998 38.191 22.9348 38.2409 22.7828C38.2908 22.6308 38.3962 22.5028 38.5365 22.4237L38.5437 22.4196C39.0061 22.1607 39.3908 21.7849 39.6585 21.3306C39.9261 20.8764 40.0673 20.36 40.0674 19.8341C40.0675 19.3082 39.9266 18.7917 39.6591 18.3373C39.3917 17.8829 39.0072 17.507 38.5449 17.2479L38.5365 17.2431C38.396 17.1637 38.2906 17.0352 38.2408 16.8828C38.1911 16.7305 38.2006 16.5652 38.2675 16.4194C38.4894 15.9402 38.5785 15.4111 38.5256 14.8865C38.4728 14.3619 38.2799 13.8607 37.9668 13.4343C37.6537 13.0079 37.2316 12.6716 36.7439 12.46C36.2562 12.2484 35.7204 12.169 35.1915 12.23C35.0311 12.2476 34.8698 12.2053 34.7392 12.1114C34.6086 12.0175 34.5181 11.8787 34.4854 11.7223L34.4838 11.7144C34.378 11.1989 34.1359 10.7204 33.7822 10.3278C33.4284 9.93526 32.9757 9.64272 32.4704 9.48007C31.9651 9.31742 31.4252 9.2905 30.9059 9.40206C30.3866 9.51361 29.9065 9.75965 29.5147 10.115L29.5133 10.1165L29.508 10.1213C29.3883 10.2291 29.2323 10.2887 29.0705 10.2885C28.9088 10.2882 28.7529 10.2281 28.6337 10.1198C28.2427 9.76365 27.7633 9.51658 27.2443 9.40388C26.7253 9.29118 26.1854 9.31688 25.6798 9.47837C25.1741 9.63986 24.7208 9.93134 24.3662 10.323C24.0116 10.7147 23.7684 11.1926 23.6614 11.7078L23.6583 11.7224C23.6252 11.879 23.5343 12.0178 23.4033 12.1117C23.2724 12.2055 23.1108 12.2477 22.9502 12.2299C22.4212 12.1692 21.8855 12.2488 21.3979 12.4607C20.9103 12.6726 20.4884 13.0091 20.1756 13.4357C19.8627 13.8623 19.6701 14.3636 19.6176 14.8882C19.565 15.4128 19.6544 15.9417 19.8765 16.4209C19.9429 16.5665 19.9521 16.7315 19.9022 16.8835C19.8523 17.0355 19.7469 17.1635 19.6066 17.2426L19.5994 17.2467C19.137 17.5056 18.7523 17.8814 18.4847 18.3356C18.217 18.7899 18.0759 19.3063 18.0757 19.8322C18.0756 20.3581 18.2165 20.8746 18.484 21.329C18.7515 21.7833 19.136 22.1593 19.5982 22.4184L19.6066 22.4232C19.7471 22.5026 19.8525 22.6311 19.9023 22.7835C19.952 22.9358 19.9425 23.1011 19.8756 23.2469C19.6501 23.7251 19.559 24.2547 19.6118 24.7799C19.6646 25.3051 19.8595 25.8065 20.1758 26.2314C20.4456 26.6016 20.7977 26.9054 21.205 27.1193C21.1393 29.699 20.0717 32.1543 18.2241 33.9745L15.665 36.5079C15.4884 36.6827 15.3725 36.9085 15.334 37.1527C15.2954 37.3969 15.3362 37.647 15.4504 37.8667C15.5647 38.0865 15.7465 38.2647 15.9696 38.3756C16.1928 38.4865 16.4457 38.5243 16.692 38.4837L22.6373 37.5028L23.5918 42.2278C23.6389 42.4608 23.7567 42.674 23.9295 42.8389C24.1022 43.0039 24.3218 43.1126 24.5587 43.1507C24.7956 43.1887 25.0386 43.1543 25.2552 43.0519C25.4717 42.9495 25.6516 42.7841 25.7706 42.5778L28.9852 37.0089C29.1574 36.7105 29.3151 36.405 29.4613 36.0945C29.6074 36.405 29.7652 36.7105 29.9374 37.0089L33.1519 42.5778C33.2709 42.7841 33.4508 42.9495 33.6674 43.0519C33.884 43.1543 34.1269 43.1887 34.3639 43.1507C34.6008 43.1126 34.8203 43.0039 34.9931 42.8389C35.1658 42.674 35.2836 42.4608 35.3307 42.2278L36.2852 37.5028L42.2305 38.4837C42.4768 38.5243 42.7297 38.4865 42.9529 38.3756C43.176 38.2647 43.3578 38.0865 43.4721 37.8667C43.5863 37.647 43.6271 37.3969 43.5886 37.1527C43.55 36.9085 43.4341 36.6827 43.2575 36.5079L40.6984 33.975ZM20.761 20.3893C20.6614 20.3338 20.5785 20.253 20.5208 20.1554C20.4631 20.0577 20.4327 19.9465 20.4327 19.8334C20.4327 19.7202 20.4631 19.6091 20.5208 19.5114C20.5785 19.4137 20.6614 19.3329 20.761 19.2774L20.7684 19.2732C21.42 18.9035 21.9091 18.3067 22.1401 17.5993C22.3712 16.8918 22.3277 16.1245 22.0182 15.4471C21.9704 15.344 21.9513 15.2302 21.9628 15.1174C21.9742 15.0045 22.0159 14.8968 22.0834 14.8051C22.1509 14.7135 22.2419 14.6414 22.3469 14.5962C22.452 14.5509 22.5673 14.5342 22.681 14.5478C23.4262 14.63 24.1755 14.4345 24.783 13.9995C25.3905 13.5645 25.8126 12.9211 25.967 12.1948L25.9701 12.1802C25.9927 12.0691 26.0448 11.9659 26.1211 11.8814C26.1973 11.7968 26.2949 11.7339 26.4039 11.699C26.5128 11.6642 26.6292 11.6587 26.741 11.6831C26.8528 11.7076 26.956 11.761 27.04 11.8381C27.5958 12.3391 28.3205 12.6168 29.0723 12.6168C29.8241 12.6168 30.5488 12.3391 31.1046 11.8381L31.1064 11.8366C31.1905 11.76 31.2937 11.7069 31.4054 11.6828C31.517 11.6587 31.6332 11.6644 31.7419 11.6993C31.8506 11.7343 31.9479 11.7973 32.024 11.8818C32.1 11.9663 32.1519 12.0692 32.1745 12.1802L32.1761 12.1882C32.33 12.9159 32.7523 13.5608 33.3604 13.997C33.9686 14.4332 34.7192 14.6295 35.4656 14.5475C35.5794 14.5344 35.6946 14.5515 35.7994 14.5971C35.9042 14.6428 35.9949 14.7152 36.062 14.8071C36.1292 14.8989 36.1704 15.0068 36.1814 15.1196C36.1924 15.2324 36.1729 15.3462 36.1248 15.449C35.816 16.1261 35.7729 16.8928 36.0039 17.5996C36.2349 18.3065 36.7235 18.9028 37.3744 19.2725L37.3828 19.2773C37.4824 19.3328 37.5654 19.4135 37.6231 19.5112C37.6808 19.6089 37.7112 19.72 37.7112 19.8332C37.7112 19.9464 37.6808 20.0575 37.6231 20.1552C37.5654 20.2529 37.4824 20.3336 37.3828 20.3891L37.3754 20.3934C36.7239 20.7631 36.2348 21.3599 36.0037 22.0673C35.7726 22.7747 35.8161 23.542 36.1257 24.2194C36.1734 24.3225 36.1926 24.4364 36.1811 24.5492C36.1696 24.662 36.128 24.7698 36.0605 24.8614C35.9929 24.953 35.902 25.0252 35.7969 25.0704C35.6919 25.1157 35.5766 25.1324 35.4628 25.1188C34.7176 25.0364 33.9682 25.2318 33.3607 25.6669C32.7531 26.1019 32.3311 26.7454 32.1769 27.4718L32.1738 27.4864C32.1511 27.5975 32.099 27.7007 32.0228 27.7852C31.9466 27.8698 31.8489 27.9327 31.74 27.9676C31.631 28.0024 31.5147 28.0079 31.4029 27.9835C31.2911 27.959 31.1879 27.9055 31.1039 27.8285C30.5476 27.3274 29.8225 27.0498 29.0704 27.0501C28.3183 27.0504 27.5934 27.3285 27.0375 27.83C26.9534 27.9066 26.8502 27.9597 26.7385 27.9838C26.6268 28.0079 26.5107 28.0022 26.402 27.9672C26.2933 27.9323 26.1959 27.8693 26.1199 27.7848C26.0439 27.7003 25.9919 27.5973 25.9694 27.4864L25.9677 27.4784C25.814 26.7506 25.3918 26.1056 24.7836 25.6694C24.1753 25.2331 23.4247 25.0369 22.6782 25.1191C22.5645 25.1322 22.4493 25.1151 22.3445 25.0694C22.2396 25.0238 22.149 24.9514 22.0818 24.8595C22.0147 24.7677 21.9735 24.6598 21.9624 24.547C21.9514 24.4341 21.9709 24.3204 22.019 24.2175C22.3279 23.5405 22.3711 22.7739 22.1403 22.0671C21.9094 21.3603 21.421 20.7639 20.7702 20.3941L20.761 20.3893ZM26.9386 35.8523L25.2857 38.7159L24.7246 35.9379C24.6646 35.6409 24.4903 35.3786 24.2384 35.2065C23.9866 35.0345 23.6771 34.9661 23.3753 35.0159L19.9317 35.5847C22.0586 33.4703 23.3393 30.6644 23.5366 27.6868C23.5967 27.7625 23.6383 27.8508 23.6583 27.945L23.6599 27.9529C23.7584 28.4321 23.9748 28.8798 24.2899 29.2564C24.605 29.6329 25.0092 29.9266 25.4665 30.1115C25.9237 30.2963 26.42 30.3666 26.9113 30.316C27.4026 30.2654 27.8737 30.0956 28.2828 29.8216V30.8414C28.2821 32.599 27.8188 34.326 26.9386 35.8523ZM35.5472 35.0159C35.2454 34.9661 34.9359 35.0345 34.6841 35.2065C34.4323 35.3786 34.2579 35.6409 34.1979 35.9379L33.6368 38.7159L31.9839 35.8523C31.1037 34.326 30.6405 32.599 30.6397 30.8414V30.1972C30.9267 30.2883 31.2263 30.335 31.5277 30.3357C31.8476 30.3352 32.1655 30.2848 32.4696 30.1864C32.9759 30.0279 33.4299 29.7374 33.7839 29.3455C34.1379 28.9537 34.379 28.4747 34.4818 27.9589L34.4848 27.9443C34.5176 27.7875 34.6085 27.6485 34.7395 27.5546C34.8705 27.4607 35.0322 27.4187 35.193 27.4368C35.2519 27.4435 35.3108 27.4478 35.3687 27.4514C35.514 30.5136 36.8051 33.4126 38.9908 35.5841L35.5472 35.0159Z" fill="#DD0060"/>
<path d="M29.0194 50.1667C29.8329 50.1667 30.4924 49.5137 30.4924 48.7083C30.4924 47.9029 29.8329 47.25 29.0194 47.25C28.2058 47.25 27.5463 47.9029 27.5463 48.7083C27.5463 49.5137 28.2058 50.1667 29.0194 50.1667Z" fill="#DD0060"/>
<path d="M24.0109 50.1667C24.8245 50.1667 25.484 49.5137 25.484 48.7083C25.484 47.9029 24.8245 47.25 24.0109 47.25C23.1974 47.25 22.5379 47.9029 22.5379 48.7083C22.5379 49.5137 23.1974 50.1667 24.0109 50.1667Z" fill="#DD0060"/>
<path d="M34.0278 50.1667C34.8413 50.1667 35.5008 49.5137 35.5008 48.7083C35.5008 47.9029 34.8413 47.25 34.0278 47.25C33.2142 47.25 32.5547 47.9029 32.5547 48.7083C32.5547 49.5137 33.2142 50.1667 34.0278 50.1667Z" fill="#DD0060"/>
</svg>
