<svg width="112" height="100" viewBox="0 0 112 100" fill="none" xmlns="http://www.w3.org/2000/svg">
<g clip-path="url(#clip0_335_58)">
<path d="M32.9546 70.1549H9.14993C4.87315 70.1549 1.40332 66.6675 1.40332 62.369V29.1168C1.40332 24.8184 4.87315 21.3309 9.14993 21.3309H81.4516" stroke="#111111" stroke-width="2" stroke-miterlimit="10"/>
<path d="M27.1446 75.8322L5.92217 75.9944C3.42067 75.9944 1.40332 73.7235 1.40332 70.8849V62.8557" stroke="#111111" stroke-width="2" stroke-miterlimit="10"/>
<path d="M22.3837 80.6172L5.92217 80.455C3.42067 80.455 1.40332 78.4274 1.40332 75.9132V71.2092" stroke="#111111" stroke-width="2" stroke-miterlimit="10"/>
<path d="M14.6371 21.3309C14.6371 28.6302 8.74646 34.6318 1.40332 34.6318" stroke="#111111" stroke-width="2" stroke-miterlimit="10"/>
<path d="M1.40332 56.854C8.66576 56.854 14.6371 62.7745 14.6371 70.1549" stroke="#111111" stroke-width="2" stroke-miterlimit="10"/>
<path d="M44.0905 58.8005C39.9751 55.8808 38.1191 51.0957 38.1191 45.7429C38.1191 36.9027 45.2202 29.7656 54.0158 29.7656C59.3416 29.7656 63.7798 32.0365 66.6847 36.0917" stroke="#111111" stroke-width="2" stroke-miterlimit="10"/>
<path d="M85.5009 25.5475H102.85C107.127 25.5475 110.597 29.0349 110.597 33.3334V66.5045C110.597 70.803 107.127 74.2904 102.85 74.2904H37.0039" stroke="#111111" stroke-width="2" stroke-miterlimit="10"/>
<path d="M110.596 66.91V74.9392C110.596 77.7778 108.579 80.0487 106.077 80.0487H31.1934" stroke="#111111" stroke-width="2" stroke-miterlimit="10"/>
<path d="M110.596 75.2637V79.9676C110.596 82.4818 108.579 84.5094 106.078 84.5094H26.6748" stroke="#111111" stroke-width="2" stroke-miterlimit="10"/>
<path d="M97.3623 74.2093C97.3623 66.9101 103.253 60.9084 110.596 60.9084" stroke="#111111" stroke-width="2" stroke-miterlimit="10"/>
<path d="M110.596 38.7673C103.334 38.7673 97.3623 32.8468 97.3623 25.4664" stroke="#111111" stroke-width="2" stroke-miterlimit="10"/>
<path d="M70.7334 40.3893C72.7507 43.0657 73.8805 46.3909 73.8805 49.9594C73.8805 58.7997 66.7794 65.9367 57.9838 65.9367C54.4333 65.9367 51.1248 64.7202 48.4619 62.7737" stroke="#111111" stroke-width="2" stroke-miterlimit="10"/>
<path d="M110.596 0.324463L85.5005 25.4664L37.0035 74.2904L31.1936 80.1298L26.6747 84.5905L11.585 99.7567" stroke="#525251" stroke-width="2" stroke-miterlimit="10"/>
</g>
<defs>
<clipPath id="clip0_335_58">
<rect width="112" height="100" fill="white"/>
</clipPath>
</defs>
</svg>
