<svg width="111" height="100" viewBox="0 0 111 100" fill="none" xmlns="http://www.w3.org/2000/svg">
<g clip-path="url(#clip0_335_77)">
<path d="M92.9063 46.1737C94.4524 27.601 94.1089 9.88823 94.1089 9.88823C94.1089 9.88823 58.8921 0.429932 55.5423 0.429932C53.1372 0.429932 16.9757 9.88823 16.9757 9.88823C16.9757 9.88823 16.5462 27.773 18.0923 46.4316" stroke="#111111" stroke-width="2" stroke-miterlimit="10"/>
<path d="M87.6665 46.2597C88.9549 30.4385 88.6972 15.5632 88.6972 15.5632C88.6972 15.5632 58.3765 7.39465 55.542 7.39465C53.4805 7.39465 22.3009 15.5632 22.3009 15.5632C22.3009 15.5632 21.9573 30.5245 23.3316 46.2597" stroke="#111111" stroke-width="2" stroke-miterlimit="10"/>
<path d="M19.6387 59.1573C21.0989 68.9596 23.3321 77.816 26.5961 83.061C31.7498 91.2296 55.4566 99.4841 55.4566 99.4841C55.4566 99.4841 79.1635 91.1436 84.3172 83.061C87.5812 77.902 89.8144 69.0456 91.2746 59.3293" stroke="#111111" stroke-width="2" stroke-miterlimit="10"/>
<path d="M24.8779 59.2433C26.1663 67.1539 27.9701 74.2046 30.6329 78.4178C35.0994 85.3826 55.4563 92.6053 55.4563 92.6053C55.4563 92.6053 75.8133 85.4686 80.2798 78.4178C82.9425 74.2046 84.8322 67.1539 86.0347 59.3293" stroke="#111111" stroke-width="2" stroke-miterlimit="10"/>
<path d="M15.3441 54.6862C15.3441 54.6862 4.77906 54.6862 1.77276 54.6862C-0.460497 54.6862 8.21484 60.1032 8.21484 61.135C8.21484 61.8229 -0.374603 67.4979 1.85865 67.4979C4.69317 67.4979 21.099 67.4979 21.099 67.4979" stroke="#525251" stroke-width="2" stroke-miterlimit="10"/>
<path d="M95.6553 54.6862C95.6553 54.6862 106.22 54.6862 109.227 54.6862C111.46 54.6862 102.785 60.1032 102.785 61.135C102.785 61.8229 111.374 67.4979 109.141 67.4979C106.306 67.4979 89.9004 67.4979 89.9004 67.4979" stroke="#525251" stroke-width="2" stroke-miterlimit="10"/>
<path d="M94.1949 59.1574H16.8899C16.1168 59.1574 15.4297 58.4695 15.4297 57.6957V47.8074C15.4297 47.0336 16.1168 46.3457 16.8899 46.3457H94.1949C94.9679 46.3457 95.6551 47.0336 95.6551 47.8074V57.6957C95.5692 58.5555 94.9679 59.1574 94.1949 59.1574Z" stroke="#525251" stroke-width="2" stroke-miterlimit="10"/>
<path d="M39.2227 50.731H71.7766" stroke="#525251" stroke-width="2" stroke-miterlimit="10" stroke-linecap="round"/>
<path d="M45.5791 54.8582H65.4207" stroke="#525251" stroke-width="2" stroke-miterlimit="10" stroke-linecap="round"/>
<path d="M41.0264 30.4386L51.076 40.4988" stroke="#111111" stroke-width="2" stroke-miterlimit="10" stroke-linecap="round"/>
<path d="M69.9729 21.5822L51.0762 40.4987" stroke="#111111" stroke-width="2" stroke-miterlimit="10" stroke-linecap="round"/>
</g>
<defs>
<clipPath id="clip0_335_77">
<rect width="111" height="100" fill="white"/>
</clipPath>
</defs>
</svg>
