<svg width="80" height="102" viewBox="0 0 80 102" fill="none" xmlns="http://www.w3.org/2000/svg">
<path d="M62.8591 59.8235C62.8591 59.8235 76.6162 88.1916 78.1343 91.1328C79.2728 93.4098 67.0337 88.666 65.6105 89.3301C64.5669 89.8045 60.3923 102.423 59.3487 100.146C57.9255 97.2998 43.8838 68.5521 43.8838 68.5521" stroke="#525251" stroke-width="2" stroke-miterlimit="10"/>
<path d="M16.7492 59.8235C16.7492 59.8235 2.99209 88.1916 1.47407 91.1328C0.335547 93.4098 12.5746 88.666 13.9978 89.3301C15.0414 89.8045 19.216 102.423 20.2596 100.146C21.6828 97.2998 35.7245 68.5521 35.7245 68.5521" stroke="#525251" stroke-width="2" stroke-miterlimit="10"/>
<path d="M40.0886 61.4365C54.6555 61.4365 66.4643 49.6277 66.4643 35.0608C66.4643 20.4939 54.6555 8.68506 40.0886 8.68506C25.5217 8.68506 13.7129 20.4939 13.7129 35.0608C13.7129 49.6277 25.5217 61.4365 40.0886 61.4365Z" stroke="#111111" stroke-width="2" stroke-miterlimit="10" stroke-linecap="round"/>
<path d="M44.7382 1.47437H35.4403C29.4631 1.47437 23.7705 3.84628 19.5959 8.02085L13.0494 14.5673C8.77997 18.8368 6.50293 24.5294 6.50293 30.4117V39.7097C6.50293 45.6869 8.87485 51.3795 13.0494 55.5541L19.5959 62.1006C23.7705 66.2751 29.558 68.647 35.4403 68.647H44.7382C50.7155 68.647 56.4081 66.2751 60.5826 62.1006L67.1291 55.5541C71.3037 51.3795 73.6756 45.592 73.6756 39.7097V30.4117C73.6756 24.4345 71.3037 18.7419 67.1291 14.5673L60.5826 8.02085C56.3132 3.84628 50.6206 1.47437 44.7382 1.47437Z" stroke="#111111" stroke-width="2" stroke-miterlimit="10" stroke-linecap="round"/>
<path d="M24.0547 34.3965L35.1553 45.4971" stroke="#111111" stroke-width="2" stroke-miterlimit="10" stroke-linecap="round"/>
<path d="M56.0281 24.6243L35.1553 45.4971" stroke="#111111" stroke-width="2" stroke-miterlimit="10" stroke-linecap="round"/>
</svg>
