<svg width="104" height="99" viewBox="0 0 104 99" fill="none" xmlns="http://www.w3.org/2000/svg">
<path d="M59.501 33.5137L72.7488 21.2308C72.7488 21.2308 69.8265 12.5548 74.5996 7.58317C79.3727 2.61153 85.1199 1.83167 89.0163 2.02663C89.893 2.12412 91.7438 2.51405 88.5293 5.53603C85.3147 8.558 83.1717 10.8976 83.1717 10.8976C83.1717 10.8976 80.4442 14.602 83.6587 17.9164C86.8733 21.1333 89.7956 18.5013 89.7956 18.5013C89.7956 18.5013 97.2962 10.9951 100.121 8.16807C100.706 7.58317 102.654 7.58317 101.777 11.8724C101.095 15.3818 99.9263 21.1333 95.348 25.6176C90.7697 30.0043 84.1458 32.1489 81.3209 29.3219C81.2235 29.2244 81.0287 29.1269 81.0287 29.1269L67.7809 41.6048" stroke="#111111" stroke-width="2" stroke-miterlimit="10" stroke-linecap="round" stroke-linejoin="round"/>
<path d="M43.8175 65.1959L31.1541 77.6737C31.1541 77.6737 34.0765 86.3497 29.3033 91.3214C24.5302 96.293 18.8804 97.1704 14.984 96.9754C14.1073 96.8779 12.2565 96.488 15.4711 93.466C18.6856 90.444 20.8286 88.1044 20.8286 88.1044C20.8286 88.1044 23.5561 84.4001 20.3416 81.0856C17.1271 77.8687 14.2047 80.5007 14.2047 80.5007C14.2047 80.5007 6.70415 88.0069 3.87925 90.8339C3.29478 91.4188 1.34658 91.4188 2.22327 87.1296C2.90514 83.6202 4.07407 77.8687 8.65235 73.3845C13.2306 68.9977 19.8545 66.8531 22.6794 69.6801C22.7769 69.7776 22.9717 69.8751 22.9717 69.8751L35.5 57" stroke="#111111" stroke-width="2" stroke-miterlimit="10" stroke-linecap="round" stroke-linejoin="round"/>
<path d="M51.8051 67.0479C61.5426 67.0479 69.4364 59.1482 69.4364 49.4035C69.4364 39.6587 61.5426 31.759 51.8051 31.759C42.0676 31.759 34.1738 39.6587 34.1738 49.4035C34.1738 59.1482 42.0676 67.0479 51.8051 67.0479Z" stroke="#525251" stroke-width="2" stroke-miterlimit="10" stroke-linecap="round" stroke-linejoin="round"/>
<path d="M56.0916 45.1142C56.0916 42.7746 54.1434 40.825 51.8056 40.825C49.4677 40.825 47.5195 42.7746 47.5195 45.1142C47.5195 47.4538 49.4677 49.4035 51.8056 49.4035" stroke="#525251" stroke-width="2" stroke-miterlimit="10" stroke-linecap="round" stroke-linejoin="round"/>
<path d="M47.6182 53.6928C47.6182 56.0324 49.5664 57.9821 51.9042 57.9821C54.2421 57.9821 56.1903 56.0324 56.1903 53.6928C56.1903 51.3532 54.2421 49.4036 51.9042 49.4036" stroke="#525251" stroke-width="2" stroke-miterlimit="10" stroke-linecap="round" stroke-linejoin="round"/>
<path d="M51.8057 38.5828V60.224" stroke="#525251" stroke-width="2" stroke-miterlimit="10" stroke-linecap="round" stroke-linejoin="round"/>
</svg>
