<svg width="70" height="70" viewBox="0 0 70 70" fill="none" xmlns="http://www.w3.org/2000/svg">
<path d="M34.9995 0C28.8143 0.00128965 22.7399 1.64128 17.3945 4.75306C12.0491 7.86484 7.6236 12.3373 4.5684 17.7152C1.51319 23.0931 -0.0626182 29.1845 0.00135185 35.3694C0.0653219 41.5542 1.76679 47.6117 4.93258 52.9253C4.77318 53.1184 4.68026 53.3578 4.66757 53.6079C4.65489 53.858 4.72311 54.1056 4.86214 54.3139L6.18339 56.2958L0.565889 59.6663C0.36395 59.7874 0.203397 59.9668 0.105341 60.1809C0.00728572 60.395 -0.0236832 60.6338 0.0165066 60.8658C0.0566963 61.0979 0.166163 61.3123 0.330515 61.4809C0.494866 61.6496 0.706407 61.7646 0.937326 61.8107L5.78001 62.7792L5.45583 68.7702C5.44437 68.9817 5.49073 69.1924 5.58993 69.3796C5.68913 69.5668 5.83743 69.7234 6.01891 69.8327C6.2004 69.942 6.40822 69.9998 6.62007 70C6.83192 70.0001 7.03981 69.9425 7.22143 69.8335L16.1318 64.4814C21.7653 68.0846 28.3127 69.9994 35 69.9994C41.6872 69.9994 48.2346 68.0846 53.8681 64.4814L62.7785 69.8335C62.9602 69.9425 63.168 70.0001 63.3799 70C63.5917 69.9998 63.7996 69.942 63.9811 69.8327C64.1625 69.7234 64.3108 69.5668 64.41 69.3796C64.5092 69.1924 64.5556 68.9817 64.5441 68.7702L64.2199 62.7792L69.0626 61.8107C69.2936 61.7646 69.5051 61.6496 69.6695 61.4809C69.8338 61.3123 69.9433 61.0979 69.9835 60.8658C70.0237 60.6338 69.9927 60.395 69.8946 60.1809C69.7966 59.9668 69.636 59.7874 69.4341 59.6663L63.8161 56.2958L65.1374 54.3139C65.2765 54.1055 65.3447 53.8578 65.3319 53.6076C65.3192 53.3574 65.2262 53.118 65.0667 52.9248C68.2335 47.6114 69.9358 41.5537 70.0003 35.3685C70.0647 29.1833 68.489 23.0914 65.4336 17.7132C62.3781 12.335 57.9521 7.86244 52.6061 4.75096C47.2601 1.63948 41.185 0.000195938 34.9995 0ZM10.845 52.555C18.3831 48.9367 26.6379 47.0582 34.9995 47.0582C43.3611 47.0582 51.6158 48.9367 59.154 52.555L62.4498 54.1373L59.0836 59.1868C51.5208 55.7453 43.3082 53.9645 34.9992 53.9645C26.6902 53.9645 18.4776 55.7453 10.9148 59.1868L7.54868 54.1373L10.845 52.555ZM34.9995 44.7249C28.4089 44.7341 21.8671 45.8565 15.6503 48.0445C13.0423 44.1952 11.6539 39.6496 11.6661 35C11.6661 22.1339 22.1333 11.6667 34.9995 11.6667C47.8656 11.6667 58.3328 22.1339 58.3328 35C58.3439 39.6495 56.9554 44.1947 54.3479 48.0442C48.1313 45.8563 41.5898 44.7341 34.9995 44.7249ZM43.0743 56.8931C37.8622 58.8134 32.1363 58.8134 26.9242 56.8931C32.2783 56.0994 37.7202 56.0994 43.0743 56.8931ZM7.90451 66.7014L8.16439 61.8965C8.17959 61.6163 8.09332 61.3401 7.92139 61.1184C7.74947 60.8966 7.5034 60.7443 7.22828 60.6893L4.35406 60.1145L7.47926 58.2394L9.52881 61.3139C9.6844 61.5472 9.91885 61.7167 10.1892 61.7913C10.4596 61.8659 10.7478 61.8406 11.001 61.72C11.7819 61.3481 12.572 60.9951 13.3712 60.6608L14.6837 62.6296L7.90451 66.7014ZM17.3948 62.5204C17.3689 62.4621 17.3384 62.4061 17.3035 62.3528L15.592 59.7861C17.9751 58.9055 20.4152 58.187 22.8953 57.6358C26.6196 59.6257 30.777 60.6667 34.9995 60.6667C39.222 60.6667 43.3794 59.6257 47.1036 57.6358C49.5839 58.1867 52.0239 58.9049 54.4071 59.7854L52.6956 62.3521C52.6607 62.4053 52.6302 62.4613 52.6045 62.5195C47.3477 65.8801 41.2389 67.6659 34.9997 67.6659C28.7605 67.6659 22.6517 65.8801 17.3949 62.5195L17.3948 62.5204ZM65.6449 60.1141L62.7707 60.6888C62.4955 60.7439 62.2495 60.8962 62.0776 61.1179C61.9056 61.3396 61.8194 61.6159 61.8346 61.896L62.0944 66.701L55.3154 62.6296L56.6279 60.6608C57.4264 60.9959 58.2164 61.3489 58.9981 61.72C59.2514 61.8408 59.5398 61.8662 59.8103 61.7916C60.0808 61.717 60.3154 61.5474 60.471 61.3139L62.5206 58.2394L65.6449 60.1141ZM63.0101 51.8174L60.1637 50.451C58.9914 49.8884 57.7999 49.3661 56.5891 48.8841C59.2615 44.7474 60.6776 39.9248 60.6661 35C60.6661 20.8473 49.1522 9.33333 34.9995 9.33333C20.8468 9.33333 9.33281 20.8473 9.33281 35C9.31999 39.9251 10.7358 44.7482 13.4087 48.8849C12.1996 49.3671 11.0087 49.8892 9.83578 50.4515L6.99014 51.8174C4.01551 46.8604 2.4096 41.2029 2.33637 35.4224C2.26315 29.6418 3.72523 23.9454 6.57334 18.9147C9.42145 13.884 13.5536 9.69923 18.5478 6.78762C23.542 3.87602 29.2194 2.3419 35.0004 2.3419C40.7814 2.3419 46.4588 3.87602 51.4531 6.78762C56.4473 9.69923 60.5794 13.884 63.4275 18.9147C66.2756 23.9454 67.7377 29.6418 67.6645 35.4224C67.5912 41.2029 65.9853 46.8604 63.0107 51.8174H63.0101Z" fill="#37A58C"/>
<path d="M46.0833 25.6667H39.6667C39.3574 25.6663 39.0608 25.5433 38.8421 25.3246C38.6234 25.1059 38.5003 24.8093 38.5 24.5V21C38.4989 20.0721 38.1298 19.1825 37.4737 18.5263C36.8175 17.8702 35.9279 17.5011 35 17.5H32.6667C32.3572 17.5 32.0605 17.6229 31.8417 17.8417C31.6229 18.0605 31.5 18.3572 31.5 18.6667V21.2381C31.5024 22.1194 31.33 22.9925 30.9927 23.8067C30.6554 24.6209 30.16 25.3601 29.535 25.9815L28.6834 26.8333H22.1667C21.8572 26.8333 21.5605 26.9562 21.3417 27.175C21.1229 27.3938 21 27.6906 21 28V40.8333C21 41.1428 21.1229 41.4395 21.3417 41.6583C21.5605 41.8771 21.8572 42 22.1667 42H42.5833C43.0558 42.0001 43.5212 41.8855 43.9395 41.6659C44.3578 41.4464 44.7166 41.1285 44.9848 40.7396C45.2531 40.3507 45.4229 39.9025 45.4796 39.4335C45.5363 38.9644 45.4783 38.4887 45.3104 38.047C45.8786 37.6877 46.3052 37.1429 46.5178 36.5051C46.7304 35.8672 46.716 35.1755 46.4771 34.547C47.0453 34.1876 47.4719 33.6429 47.6845 33.0051C47.8971 32.3672 47.8827 31.6755 47.6438 31.047C48.1774 30.7089 48.5868 30.2067 48.8104 29.6159C49.0341 29.0251 49.0598 28.3776 48.8839 27.7709C48.7079 27.1642 48.3397 26.631 47.8347 26.2515C47.3296 25.8721 46.7151 25.6668 46.0833 25.6667ZM23.3333 29.1667H28V39.6667H23.3333V29.1667ZM46.0833 29.1667H44.9167C44.6072 29.1667 44.3105 29.2896 44.0917 29.5084C43.8729 29.7272 43.75 30.0239 43.75 30.3333C43.75 30.6428 43.8729 30.9395 44.0917 31.1583C44.3105 31.3771 44.6072 31.5 44.9167 31.5C45.0714 31.5 45.2198 31.5615 45.3291 31.6709C45.4385 31.7802 45.5 31.9286 45.5 32.0833C45.5 32.238 45.4385 32.3864 45.3291 32.4958C45.2198 32.6052 45.0714 32.6667 44.9167 32.6667H43.75C43.4406 32.6667 43.1438 32.7896 42.925 33.0084C42.7063 33.2272 42.5833 33.5239 42.5833 33.8333C42.5833 34.1428 42.7063 34.4395 42.925 34.6583C43.1438 34.8771 43.4406 35 43.75 35C43.9047 35 44.0531 35.0615 44.1625 35.1709C44.2719 35.2802 44.3333 35.4286 44.3333 35.5833C44.3333 35.738 44.2719 35.8864 44.1625 35.9958C44.0531 36.1052 43.9047 36.1667 43.75 36.1667H42.5833C42.2739 36.1667 41.9772 36.2896 41.7584 36.5084C41.5396 36.7272 41.4167 37.0239 41.4167 37.3333C41.4167 37.6428 41.5396 37.9395 41.7584 38.1583C41.9772 38.3771 42.2739 38.5 42.5833 38.5C42.738 38.5 42.8864 38.5615 42.9958 38.6709C43.1052 38.7802 43.1667 38.9286 43.1667 39.0833C43.1667 39.238 43.1052 39.3864 42.9958 39.4958C42.8864 39.6052 42.738 39.6667 42.5833 39.6667H30.3333V28.4831L31.1851 27.6316C32.0273 26.7939 32.695 25.7976 33.1496 24.7001C33.6041 23.6027 33.8365 22.426 33.8333 21.2381V19.8333H35C35.3093 19.8337 35.6059 19.9567 35.8246 20.1754C36.0433 20.3941 36.1663 20.6907 36.1667 21V24.5C36.1677 25.4279 36.5368 26.3175 37.193 26.9737C37.8491 27.6298 38.7387 27.9989 39.6667 28H46.0833C46.238 28 46.3864 28.0615 46.4958 28.1709C46.6052 28.2802 46.6667 28.4286 46.6667 28.5833C46.6667 28.738 46.6052 28.8864 46.4958 28.9958C46.3864 29.1052 46.238 29.1667 46.0833 29.1667Z" fill="#DD0060"/>
<path d="M32.5806 50.1958L33.6598 50.9799L33.2475 52.2487C33.2189 52.3366 33.2188 52.4313 33.2474 52.5192C33.2759 52.6071 33.3316 52.6837 33.4063 52.738C33.4811 52.7924 33.5712 52.8216 33.6636 52.8216C33.756 52.8216 33.8461 52.7923 33.9208 52.738L35 51.9538L36.0791 52.738C36.1539 52.7923 36.2439 52.8216 36.3364 52.8216C36.4288 52.8216 36.5189 52.7924 36.5936 52.738C36.6684 52.6837 36.724 52.6071 36.7526 52.5192C36.7811 52.4313 36.7811 52.3366 36.7525 52.2487L36.3402 50.9799L37.4194 50.1958C37.4941 50.1415 37.5497 50.0649 37.5783 49.9771C37.6068 49.8892 37.6068 49.7945 37.5783 49.7067C37.5497 49.6188 37.4941 49.5422 37.4194 49.4879C37.3447 49.4336 37.2546 49.4044 37.1623 49.4044H35.8283L35.416 48.1356C35.3875 48.0478 35.3318 47.9712 35.2571 47.9169C35.1824 47.8626 35.0924 47.8334 35 47.8334C34.9076 47.8334 34.8176 47.8626 34.7429 47.9169C34.6681 47.9712 34.6125 48.0478 34.5839 48.1356L34.1716 49.4044H32.8377C32.7453 49.4044 32.6553 49.4336 32.5806 49.4879C32.5058 49.5422 32.4502 49.6188 32.4217 49.7067C32.3931 49.7945 32.3931 49.8892 32.4217 49.9771C32.4502 50.0649 32.5059 50.1415 32.5806 50.1958Z" fill="#DD0060"/>
<path d="M25.8478 51.0393L26.927 51.8234L26.5147 53.0922C26.4861 53.1801 26.4861 53.2747 26.5146 53.3627C26.5431 53.4506 26.5988 53.5272 26.6735 53.5815C26.7483 53.6359 26.8384 53.6651 26.9308 53.6651C27.0232 53.6651 27.1133 53.6358 27.188 53.5814L28.2672 52.7973L29.3464 53.5814C29.4211 53.6358 29.5112 53.6651 29.6036 53.6651C29.696 53.6651 29.7861 53.6359 29.8608 53.5815C29.9356 53.5272 29.9913 53.4506 30.0198 53.3627C30.0483 53.2747 30.0483 53.1801 30.0197 53.0922L29.6074 51.8234L30.6866 51.0393C30.7613 50.985 30.8169 50.9084 30.8455 50.8205C30.874 50.7327 30.874 50.638 30.8455 50.5502C30.8169 50.4623 30.7613 50.3857 30.6866 50.3314C30.6118 50.2771 30.5218 50.2478 30.4295 50.2478H29.0954L28.6832 48.9791C28.6547 48.8912 28.5991 48.8146 28.5243 48.7602C28.4496 48.7059 28.3595 48.6766 28.2671 48.6766C28.1747 48.6766 28.0847 48.7059 28.0099 48.7602C27.9351 48.8146 27.8795 48.8912 27.851 48.9791L27.4389 50.2478H26.1049C26.0125 50.2478 25.9225 50.2771 25.8478 50.3314C25.7731 50.3857 25.7174 50.4623 25.6889 50.5502C25.6603 50.638 25.6603 50.7327 25.6889 50.8205C25.7174 50.9084 25.7731 50.985 25.8478 51.0393Z" fill="#DD0060"/>
<path d="M39.3133 51.0393L40.3925 51.8234L39.9802 53.0922C39.9516 53.1801 39.9516 53.2747 39.9801 53.3627C40.0086 53.4506 40.0643 53.5272 40.1391 53.5815C40.2138 53.6359 40.3039 53.6651 40.3963 53.6651C40.4887 53.6651 40.5788 53.6358 40.6535 53.5814L41.7327 52.7973L42.8119 53.5814C42.8866 53.6358 42.9767 53.6651 43.0691 53.6651C43.1615 53.6651 43.2516 53.6359 43.3264 53.5815C43.4011 53.5272 43.4568 53.4506 43.4853 53.3627C43.5138 53.2747 43.5138 53.1801 43.4852 53.0922L43.0729 51.8234L44.1521 51.0393C44.2268 50.985 44.2825 50.9084 44.311 50.8205C44.3396 50.7326 44.3395 50.638 44.311 50.5501C44.2824 50.4622 44.2268 50.3857 44.152 50.3314C44.0773 50.2771 43.9872 50.2478 43.8948 50.2478H42.5609L42.1488 48.9791C42.1202 48.8912 42.0646 48.8146 41.9899 48.7602C41.9151 48.7059 41.825 48.6766 41.7326 48.6766C41.6402 48.6766 41.5502 48.7059 41.4754 48.7602C41.4007 48.8146 41.345 48.8912 41.3165 48.9791L40.9044 50.2478H39.5704C39.478 50.2478 39.388 50.2771 39.3133 50.3314C39.2386 50.3857 39.1829 50.4623 39.1544 50.5502C39.1259 50.638 39.1259 50.7327 39.1544 50.8205C39.183 50.9084 39.2386 50.985 39.3133 51.0393Z" fill="#DD0060"/>
</svg>
