<svg width="46" height="70" viewBox="0 0 46 70" fill="none" xmlns="http://www.w3.org/2000/svg">
<g clip-path="url(#clip0)">
<path d="M23 0C22.3315 0 21.7895 0.549873 21.7895 1.22807V2.5185C9.58787 3.17571 0.0201042 13.3936 7.62939e-06 25.7895V28.2456C7.62939e-06 28.6713 0.216933 29.0665 0.573944 29.2908C0.930363 29.5144 1.37604 29.5348 1.75137 29.3447L2.70064 28.862C6.2607 27.0451 10.4904 27.21 13.9027 29.298C13.914 29.3052 13.9258 29.3064 13.937 29.313C13.9477 29.319 13.9902 29.3352 14.0168 29.3483C14.1244 29.3993 14.2391 29.4335 14.3567 29.4503C14.3786 29.4503 14.3957 29.4665 14.4176 29.4689C14.4394 29.4713 14.4903 29.4689 14.5263 29.4689C14.6841 29.4677 14.8408 29.4353 14.9862 29.3729H15.0021L17.993 28.0723C19.1982 27.5494 20.482 27.2376 21.7895 27.1489V32.6752L19.7509 31.9862C19.3808 31.8615 18.9736 31.925 18.658 32.1571C18.3417 32.3897 18.1561 32.7621 18.1579 33.1579V36.1051C18.1561 36.8319 18.3666 37.5431 18.7632 38.1487L19.557 39.357C13.9672 39.8967 9.69427 44.6542 9.68422 50.3509V62.6316C7.92517 62.6687 6.43152 63.949 6.10111 65.7017C5.9226 66.7715 6.21814 67.8664 6.90911 68.6945C7.59949 69.5233 8.61496 70.0006 9.68422 70H36.3158C37.4784 70.0018 38.5714 69.4387 39.2564 68.4859C39.9409 67.5324 40.1342 66.3044 39.7766 65.1824C39.2724 63.6743 37.8857 62.6519 36.3158 62.6316V50.3509C36.3087 45.7792 33.5301 41.683 29.3239 40.0436C31.3555 39.2497 33.2038 38.0372 34.7506 36.4823C35.2093 36.0002 35.2028 35.2344 34.7358 34.7607C34.2689 34.287 33.5141 34.2804 33.0389 34.7457C31.5777 36.2239 29.7992 37.3392 27.8421 38.0036L27.1754 38.2297L27.2321 38.1427C27.6293 37.5395 27.8415 36.8307 27.8421 36.1051V33.1579C27.8421 32.7633 27.6553 32.3921 27.3397 32.1613C27.0241 31.9304 26.618 31.8674 26.2492 31.9922L24.2105 32.6812V27.2334C25.4571 27.4127 26.6665 27.7947 27.7925 28.3661L29.7223 29.3483C29.7353 29.3483 29.7525 29.3483 29.7667 29.3579C29.9221 29.4329 30.0912 29.4719 30.2632 29.4737H30.3731C30.4901 29.4569 30.6036 29.4227 30.71 29.3717C30.7402 29.3597 30.775 29.3645 30.804 29.3495L32.3172 28.582C35.5982 26.927 39.4544 26.927 42.7355 28.582L44.2486 29.3495C44.6246 29.5402 45.0714 29.5192 45.4284 29.2944C45.7854 29.0689 46.0018 28.6719 46 28.2456V25.7895C45.9799 13.3936 36.4121 3.17571 24.2105 2.5185V1.22807C24.2105 0.549873 23.6685 0 23 0V0ZM13.525 26.3693C9.9969 24.7713 5.97107 24.7425 2.42106 26.2896V25.7895C2.43525 15.1536 10.3202 6.2243 20.7397 5.0448C16.8747 11.5551 14.4158 18.8234 13.525 26.3693ZM33.8947 50.3509V62.7665C33.8959 64.0479 34.9197 65.0865 36.1828 65.0877C36.7349 65.0571 37.2462 65.3827 37.4584 65.9008C37.589 66.2876 37.5251 66.7151 37.2863 67.0455C37.06 67.3591 36.6994 67.5444 36.3158 67.5438H9.68422C9.32603 67.5438 8.98616 67.3831 8.75623 67.1049C8.52571 66.8261 8.42936 66.4585 8.49202 66.1011C8.64038 65.4865 9.19422 65.0631 9.81721 65.0877C11.0803 65.0865 12.1041 64.0479 12.1053 62.7665V50.3509C12.1106 45.6053 15.9012 41.7598 20.579 41.7544H25.4211C30.0988 41.7598 33.8894 45.6053 33.8947 50.3509ZM25.4211 34.8615V36.1051C25.4205 36.348 25.3495 36.5848 25.2177 36.7869L23.5627 39.2982H22.4373L20.7823 36.7809C20.6517 36.58 20.5807 36.3456 20.579 36.1051V34.8615L22.6176 35.5517C22.8658 35.635 23.1342 35.635 23.3824 35.5517L25.4211 34.8615ZM43.579 25.7895V26.2608C39.6891 24.3935 35.1727 24.4247 31.3088 26.3471L31.2449 25.6336C30.603 18.4091 28.5112 11.3944 25.0977 5.02021C35.59 6.12476 43.566 15.0882 43.579 25.7895ZM28.8322 25.856L28.8599 26.1618C25.1628 24.288 20.8396 24.1614 17.0419 25.8152L15.9792 26.2806C16.8753 19.1382 19.2449 12.2681 22.9332 6.11696C26.2107 12.2177 28.2186 18.9361 28.8322 25.856Z" fill="#37A58C"/>
<path d="M24.2911 47.5H19.7006C19.4977 47.5 19.3031 47.5823 19.1596 47.7288C19.0162 47.8753 18.9356 48.074 18.9356 48.2813V55.3125H17.4054V56.875H18.9356V60H20.4657V56.875H25.8212V55.3125H20.4657V53.75H24.2911C25.1027 53.75 25.8811 53.4208 26.455 52.8347C27.0289 52.2487 27.3514 51.4538 27.3514 50.625C27.3514 49.7962 27.0289 49.0013 26.455 48.4153C25.8811 47.8292 25.1027 47.5 24.2911 47.5ZM24.2911 52.1875H20.4657V49.0625H24.2911C24.6969 49.0625 25.0861 49.2271 25.373 49.5201C25.66 49.8132 25.8212 50.2106 25.8212 50.625C25.8212 51.0394 25.66 51.4368 25.373 51.7299C25.0861 52.0229 24.6969 52.1875 24.2911 52.1875Z" fill="#DD0060"/>
</g>
<defs>
<clipPath id="clip0">
<rect width="46" height="70" fill="white"/>
</clipPath>
</defs>
</svg>
