<svg width="80" height="69" viewBox="0 0 80 69" fill="none" xmlns="http://www.w3.org/2000/svg">
<path d="M79.7965 39.0023C79.7963 39.0019 79.7963 39.0017 79.7961 39.0013L64.709 0.913341C64.3888 0.10407 63.4765 -0.291005 62.6716 0.0309296C62.671 0.0311267 62.6704 0.0313238 62.6698 0.0317181L1.46353 24.5358C1.21392 24.6442 0.997451 24.8173 0.836078 25.0373C0.327059 25.3033 0.0054902 25.8296 0 26.4063V67.412C0 68.283 0.702353 68.9891 1.56863 68.9891H67.451C68.3173 68.9891 69.0196 68.283 69.0196 67.412V45.0166L78.9208 41.0516C79.7255 40.7289 80.1174 39.8114 79.7965 39.0023ZM65.8823 65.8348H3.13725V27.9834H65.8823V65.8348ZM26.1725 24.837L52.4376 14.3143C54.7818 16.7916 58.0298 18.1996 61.4306 18.213L64.0502 24.837H26.1725ZM69.0196 41.6289V26.4063C69.0196 25.5353 68.3173 24.8291 67.451 24.8291H67.4259L64.102 16.4356C64.0651 16.3656 64.0222 16.299 63.9733 16.2369C63.8051 15.4773 63.1055 14.959 62.3341 15.0225C59.1698 15.3125 56.0743 13.9723 54.1098 11.4613C53.621 10.8547 52.7618 10.7038 52.0973 11.108C52.0227 11.1169 51.9488 11.1307 51.8761 11.149L19.8102 23.9869C19.4222 24.1399 19.1118 24.4433 18.949 24.8291H9.21098L62.3749 3.54559L76.3027 38.708L69.0196 41.6289Z" fill="#37A58C"/>
<path d="M7.39451 55.1876C10.44 56.0926 12.8231 58.4858 13.7271 61.5466C13.9253 62.2147 14.5365 62.6725 15.2298 62.6727C15.3112 62.6676 15.392 62.6553 15.4714 62.6364C15.5418 62.6565 15.6137 62.6713 15.6863 62.6806H53.3333C53.398 62.6721 53.462 62.6589 53.5247 62.6411C54.3084 62.8328 55.0982 62.3496 55.289 61.5616C55.2896 61.5586 55.2904 61.5559 55.291 61.5529C56.1926 58.4889 58.5761 56.0924 61.6235 55.186C62.3626 54.9589 62.8218 54.2184 62.6996 53.4511C62.7206 53.3746 62.7357 53.2966 62.7451 53.2177V40.6006C62.7359 40.5215 62.7202 40.4434 62.698 40.3671C62.821 39.5997 62.3616 38.8588 61.622 38.6323C58.5745 37.726 56.1916 35.3286 55.2926 32.2638C55.0655 31.5156 54.3218 31.0527 53.5545 31.1819C53.482 31.1615 53.408 31.1468 53.3333 31.1377H15.6863C15.6073 31.1472 15.529 31.1629 15.4525 31.185C14.6896 31.0628 13.9535 31.5243 13.7271 32.2669C12.8249 35.3303 10.4416 37.726 7.39451 38.6323C6.65549 38.8594 6.19627 39.5999 6.31843 40.3671C6.29803 40.4438 6.28333 40.5217 6.27451 40.6006V53.2177C6.28353 53.2918 6.29823 53.3652 6.31843 53.4369C6.1898 54.2091 6.65 54.9579 7.39451 55.1876ZM9.41176 41.2409C12.5616 39.9689 15.058 37.4589 16.3231 34.292H52.6949C53.9606 37.4589 56.4577 39.9689 59.6078 41.2409V52.5774C56.459 53.8507 53.9629 56.3604 52.6965 59.5263H16.3231C15.0567 56.3604 12.5606 53.8507 9.41176 52.5774V41.2409Z" fill="#37A58C"/>
<path d="M34.5098 56.372C39.7078 56.372 43.9216 52.1354 43.9216 46.9091C43.9216 41.6829 39.7078 37.4463 34.5098 37.4463C29.3118 37.4463 25.0981 41.6829 25.0981 46.9091C25.1032 52.1332 29.3139 56.3669 34.5098 56.372ZM34.5098 40.6006C37.9751 40.6006 40.7843 43.425 40.7843 46.9091C40.7843 50.3932 37.9751 53.2177 34.5098 53.2177C31.0445 53.2177 28.2353 50.3932 28.2353 46.9091C28.2353 43.425 31.0445 40.6006 34.5098 40.6006Z" fill="#DD0060"/>
<path d="M17.2549 49.2747C18.5543 49.2747 19.6078 48.2155 19.6078 46.909C19.6078 45.6026 18.5543 44.5433 17.2549 44.5433C15.9555 44.5433 14.9019 45.6026 14.9019 46.909C14.9019 48.2157 15.9555 49.2747 17.2549 49.2747ZM17.2549 46.1205C17.688 46.1205 18.0392 46.4736 18.0392 46.909C18.0392 47.3445 17.688 47.6976 17.2549 47.6976C16.8218 47.6976 16.4706 47.3445 16.4706 46.909C16.4706 46.4736 16.8218 46.1205 17.2549 46.1205Z" fill="#DD0060"/>
<path d="M51.7647 49.2747C53.0641 49.2747 54.1177 48.2155 54.1177 46.909C54.1177 45.6026 53.0641 44.5433 51.7647 44.5433C50.4653 44.5433 49.4118 45.6026 49.4118 46.909C49.4118 48.2157 50.4653 49.2747 51.7647 49.2747ZM51.7647 46.1205C52.1979 46.1205 52.549 46.4736 52.549 46.909C52.549 47.3445 52.1979 47.6976 51.7647 47.6976C51.3316 47.6976 50.9804 47.3445 50.9804 46.909C50.9804 46.4736 51.3316 46.1205 51.7647 46.1205Z" fill="#DD0060"/>
</svg>
