<svg width="200" height="53" viewBox="0 0 200 53" fill="none" xmlns="http://www.w3.org/2000/svg">
<path d="M61.4639 15.7015H66.429V31.9777H74.6846V36.2671H61.4639V15.7015Z" fill="#111111"/>
<path d="M74.921 25.9843C74.921 24.3978 75.1952 22.9484 75.7436 21.6362C76.3116 20.3239 77.0951 19.1879 78.094 18.2281C79.1125 17.2684 80.2876 16.5339 81.6195 16.0247C82.971 15.4959 84.4301 15.2314 85.997 15.2314C87.5835 15.2314 89.0525 15.4959 90.404 16.0247C91.7554 16.5339 92.9208 17.2684 93.9001 18.2281C94.899 19.1879 95.6727 20.3239 96.2211 21.6362C96.7891 22.9484 97.0731 24.3978 97.0731 25.9843C97.0731 27.5708 96.7989 29.03 96.2505 30.3618C95.7216 31.6937 94.9578 32.8493 93.9589 33.8286C92.96 34.8079 91.7848 35.5718 90.4333 36.1202C89.1015 36.649 87.6227 36.9134 85.997 36.9134C84.391 36.9134 82.9122 36.649 81.5608 36.1202C80.2093 35.5718 79.0341 34.8079 78.0352 33.8286C77.0363 32.8493 76.2627 31.6937 75.7143 30.3618C75.1854 29.03 74.921 27.5708 74.921 25.9843ZM80.1799 25.9843C80.1799 27.1987 80.415 28.2759 80.885 29.216C81.3747 30.1366 82.0602 30.8613 82.9416 31.3901C83.823 31.9189 84.8415 32.1834 85.997 32.1834C87.1722 32.1834 88.1907 31.9189 89.0525 31.3901C89.9143 30.8613 90.5802 30.1366 91.0503 29.216C91.54 28.2759 91.7848 27.1987 91.7848 25.9843C91.7848 24.77 91.5497 23.7025 91.0797 22.7819C90.6096 21.8418 89.9437 21.1073 89.0819 20.5785C88.2201 20.0497 87.1918 19.7853 85.997 19.7853C84.8415 19.7853 83.823 20.0497 82.9416 20.5785C82.0602 21.1073 81.3747 21.8418 80.885 22.7819C80.415 23.7025 80.1799 24.77 80.1799 25.9843Z" fill="#111111"/>
<path d="M110.42 28.8341V25.0148H120.82C120.918 26.6404 120.752 28.178 120.321 29.6273C119.89 31.0571 119.224 32.3205 118.323 33.4173C117.422 34.5141 116.296 35.3759 114.944 36.0027C113.612 36.6099 112.065 36.9134 110.302 36.9134C108.128 36.9134 106.189 36.4532 104.485 35.5326C102.801 34.6121 101.469 33.3389 100.49 31.7133C99.5299 30.068 99.05 28.1584 99.05 25.9843C99.05 23.8102 99.5494 21.9202 100.548 20.3141C101.547 18.6884 102.908 17.4349 104.632 16.5535C106.356 15.6721 108.304 15.2314 110.479 15.2314C112.653 15.2314 114.504 15.6917 116.031 16.6123C117.559 17.5132 118.803 18.6786 119.762 20.1084L115.326 22.4C114.856 21.597 114.229 20.9213 113.446 20.3728C112.682 19.8244 111.693 19.5502 110.479 19.5502C109.343 19.5502 108.295 19.8048 107.335 20.3141C106.395 20.8233 105.641 21.5578 105.073 22.5175C104.524 23.4773 104.25 24.6329 104.25 25.9843C104.25 27.3358 104.515 28.5109 105.043 29.5098C105.592 30.4891 106.336 31.253 107.276 31.8014C108.216 32.3303 109.284 32.5947 110.479 32.5947C111.987 32.5947 113.181 32.2421 114.063 31.537C114.944 30.8123 115.551 29.9113 115.884 28.8341H110.42Z" fill="#111111"/>
<path d="M122.978 25.9843C122.978 24.3978 123.252 22.9484 123.801 21.6362C124.369 20.3239 125.152 19.1879 126.151 18.2281C127.17 17.2684 128.345 16.5339 129.677 16.0247C131.028 15.4959 132.487 15.2314 134.054 15.2314C135.641 15.2314 137.11 15.4959 138.461 16.0247C139.813 16.5339 140.978 17.2684 141.957 18.2281C142.956 19.1879 143.73 20.3239 144.278 21.6362C144.846 22.9484 145.13 24.3978 145.13 25.9843C145.13 27.5708 144.856 29.03 144.308 30.3618C143.779 31.6937 143.015 32.8493 142.016 33.8286C141.017 34.8079 139.842 35.5718 138.49 36.1202C137.159 36.649 135.68 36.9134 134.054 36.9134C132.448 36.9134 130.969 36.649 129.618 36.1202C128.266 35.5718 127.091 34.8079 126.092 33.8286C125.093 32.8493 124.32 31.6937 123.771 30.3618C123.243 29.03 122.978 27.5708 122.978 25.9843ZM128.237 25.9843C128.237 27.1987 128.472 28.2759 128.942 29.216C129.432 30.1366 130.117 30.8613 130.999 31.3901C131.88 31.9189 132.899 32.1834 134.054 32.1834C135.229 32.1834 136.248 31.9189 137.11 31.3901C137.971 30.8613 138.637 30.1366 139.107 29.216C139.597 28.2759 139.842 27.1987 139.842 25.9843C139.842 24.77 139.607 23.7025 139.137 22.7819C138.667 21.8418 138.001 21.1073 137.139 20.5785C136.277 20.0497 135.249 19.7853 134.054 19.7853C132.899 19.7853 131.88 20.0497 130.999 20.5785C130.117 21.1073 129.432 21.8418 128.942 22.7819C128.472 23.7025 128.237 24.77 128.237 25.9843Z" fill="#111111"/>
<path d="M145.336 20.1672V15.7015H161.612V20.1672H155.972V36.2671H150.977V20.1672H145.336Z" fill="#111111"/>
<path d="M176.297 15.7015H182.026L174.828 27.894V36.2671H169.745V27.9233L162.547 15.7015H168.276L172.272 23.4283L176.297 15.7015Z" fill="#111111"/>
<path d="M182.979 20.1672V15.7015H199.255V20.1672H193.614V36.2671H188.62V20.1672H182.979Z" fill="#111111"/>
<path d="M13.2541 39.7018C10.6861 37.1338 8.93731 33.8619 8.2288 30.3C7.52029 26.7381 7.88392 23.0461 9.27371 19.6909C10.6635 16.3357 13.017 13.4679 16.0366 11.4502C19.0563 9.43257 22.6064 8.35565 26.2381 8.35565C29.8698 8.35565 33.4199 9.43257 36.4395 11.4502C39.4592 13.4679 41.8127 16.3357 43.2025 19.6909C44.5923 23.0461 44.9559 26.7381 44.2474 30.3C43.5389 33.8619 41.7901 37.1338 39.2221 39.7018L32.7301 33.2098C34.0141 31.9258 34.8885 30.2899 35.2427 28.5089C35.597 26.728 35.4152 24.882 34.7203 23.2043C34.0254 21.5267 32.8486 20.0928 31.3388 19.084C29.829 18.0752 28.0539 17.5367 26.2381 17.5367C24.4223 17.5367 22.6472 18.0752 21.1374 19.084C19.6276 20.0928 18.4508 21.5267 17.7559 23.2043C17.061 24.882 16.8792 26.728 17.2334 28.5089C17.5877 30.2899 18.4621 31.9258 19.7461 33.2098L13.2541 39.7018Z" fill="#111111"/>
</svg>
